<svg width="279" height="128" viewBox="0 0 279 128" fill="none" xmlns="http://www.w3.org/2000/svg">
<g filter="url(#filter0_i_100_1733)">
<path d="M63.125 27V10.9H67.7L71.7 19.075L75.675 10.9H80.225V27H75.525V18.95L72.95 24.25H70.425L67.825 18.95V27H63.125ZM89.9854 27.25C88.4854 27.25 87.1604 27.0083 86.0104 26.525C84.877 26.025 83.9854 25.3 83.3354 24.35C82.6854 23.3833 82.3604 22.2 82.3604 20.8V10.9H87.0604V20.3C87.0604 22.2667 88.0354 23.25 89.9854 23.25C90.9187 23.25 91.6354 23.0083 92.1354 22.525C92.6354 22.0417 92.8854 21.3 92.8854 20.3V10.9H97.5854V20.8C97.5854 22.2 97.2604 23.3833 96.6104 24.35C95.977 25.3 95.0854 26.025 93.9354 26.525C92.802 27.0083 91.4854 27.25 89.9854 27.25ZM99.7217 27V10.9H104.422V23.4H111.672V27H99.7217ZM114.209 27V14.4H109.684V10.9H123.434V14.4H118.909V27H114.209ZM124.673 27V10.9H129.373V27H124.673ZM131.631 27V10.9H139.931C141.248 10.9 142.331 11.1667 143.181 11.7C144.048 12.2167 144.689 12.925 145.106 13.825C145.523 14.725 145.731 15.725 145.731 16.825C145.731 17.9583 145.489 18.9667 145.006 19.85C144.523 20.7333 143.839 21.425 142.956 21.925C142.073 22.425 141.031 22.675 139.831 22.675H136.331V27H131.631ZM136.331 19.075H138.756C139.489 19.075 140.031 18.8667 140.381 18.45C140.748 18.0333 140.931 17.4917 140.931 16.825C140.931 16.1083 140.764 15.5417 140.431 15.125C140.098 14.7083 139.581 14.5 138.881 14.5H136.331V19.075ZM146.987 27V10.9H151.687V23.4H158.937V27H146.987ZM159.695 27L165.87 10.9H170.845L177.02 27H172.12L170.77 23.575H165.92L164.595 27H159.695ZM166.545 20.2H170.145L168.345 15.475L166.545 20.2ZM180.461 27V21.1L174.661 10.9H179.561L182.811 16.975L186.061 10.9H190.961L185.161 21.1V27H180.461ZM192.227 27V10.9H204.427V14.5H196.927V17.125H203.502V20.775H196.927V23.4H204.427V27H192.227ZM205.923 27V10.9H214.298C215.615 10.9 216.69 11.1417 217.523 11.625C218.373 12.1083 219.006 12.7833 219.423 13.65C219.84 14.5 220.048 15.4917 220.048 16.625C220.048 17.7083 219.773 18.6667 219.223 19.5C218.69 20.3167 217.973 20.9417 217.073 21.375C217.256 21.525 217.415 21.7083 217.548 21.925C217.681 22.125 217.831 22.4083 217.998 22.775L219.848 27H214.948L213.248 23.125C213.115 22.825 212.948 22.6167 212.748 22.5C212.565 22.3667 212.298 22.3 211.948 22.3H210.623V27H205.923ZM210.623 18.7H213.098C213.781 18.7 214.306 18.525 214.673 18.175C215.056 17.8083 215.248 17.2917 215.248 16.625C215.248 15.2083 214.581 14.5 213.248 14.5H210.623V18.7Z" fill="#E64D48"/>
</g>
<g filter="url(#filter1_d_100_1733)">
<g filter="url(#filter2_d_100_1733)">
<mask id="path-2-outside-1_100_1733" maskUnits="userSpaceOnUse" x="46" y="41" width="188" height="41" fill="black">
<rect fill="white" x="46" y="41" width="188" height="41"/>
<path d="M54.125 76L65.24 47.02H74.195L85.31 76H76.49L74.06 69.835H65.33L62.945 76H54.125ZM66.455 63.76H72.935L69.695 55.255L66.455 63.76ZM88.4674 76V47.02H103.542C105.912 47.02 107.847 47.455 109.347 48.325C110.877 49.195 112.017 50.41 112.767 51.97C113.517 53.5 113.892 55.285 113.892 57.325C113.892 59.275 113.397 61 112.407 62.5C111.447 63.97 110.157 65.095 108.537 65.875C108.867 66.145 109.152 66.475 109.392 66.865C109.632 67.225 109.902 67.735 110.202 68.395L113.532 76H104.712L101.652 69.025C101.412 68.485 101.112 68.11 100.752 67.9C100.422 67.66 99.9424 67.54 99.3124 67.54H96.9274V76H88.4674ZM96.9274 61.06H101.382C102.612 61.06 103.557 60.745 104.217 60.115C104.907 59.455 105.252 58.525 105.252 57.325C105.252 54.775 104.052 53.5 101.652 53.5H96.9274V61.06ZM131.628 76.45C126.378 76.45 122.373 75.16 119.613 72.58C116.853 70 115.473 66.355 115.473 61.645C115.473 56.785 116.823 53.065 119.523 50.485C122.223 47.875 126.243 46.57 131.583 46.57C133.383 46.57 134.988 46.705 136.398 46.975C137.808 47.245 139.158 47.62 140.448 48.1V55.48C137.868 54.34 135.108 53.77 132.168 53.77C129.438 53.77 127.413 54.4 126.093 55.66C124.773 56.89 124.113 58.885 124.113 61.645C124.113 64.345 124.803 66.295 126.183 67.495C127.593 68.665 129.618 69.25 132.258 69.25C133.698 69.25 135.093 69.115 136.443 68.845C137.823 68.575 139.188 68.155 140.538 67.585V75.01C139.248 75.46 137.883 75.805 136.443 76.045C135.033 76.315 133.428 76.45 131.628 76.45ZM141.928 76L153.043 47.02H161.998L173.113 76H164.293L161.863 69.835H153.133L150.748 76H141.928ZM154.258 63.76H160.738L157.498 55.255L154.258 63.76ZM176.27 76V47.02H189.23C192.2 47.02 194.735 47.515 196.835 48.505C198.935 49.465 200.54 51.025 201.65 53.185C202.76 55.315 203.315 58.15 203.315 61.69C203.315 66.67 202.1 70.3 199.67 72.58C197.24 74.86 193.76 76 189.23 76H176.27ZM184.73 69.52H188.15C189.56 69.52 190.745 69.325 191.705 68.935C192.665 68.515 193.4 67.75 193.91 66.64C194.42 65.5 194.675 63.85 194.675 61.69C194.675 59.53 194.435 57.865 193.955 56.695C193.505 55.495 192.8 54.67 191.84 54.22C190.88 53.74 189.65 53.5 188.15 53.5H184.73V69.52ZM206.461 76V47.02H228.421V53.5H214.921V58.225H226.756V64.795H214.921V69.52H228.421V76H206.461Z"/>
</mask>
<path d="M54.125 76L65.24 47.02H74.195L85.31 76H76.49L74.06 69.835H65.33L62.945 76H54.125ZM66.455 63.76H72.935L69.695 55.255L66.455 63.76ZM88.4674 76V47.02H103.542C105.912 47.02 107.847 47.455 109.347 48.325C110.877 49.195 112.017 50.41 112.767 51.97C113.517 53.5 113.892 55.285 113.892 57.325C113.892 59.275 113.397 61 112.407 62.5C111.447 63.97 110.157 65.095 108.537 65.875C108.867 66.145 109.152 66.475 109.392 66.865C109.632 67.225 109.902 67.735 110.202 68.395L113.532 76H104.712L101.652 69.025C101.412 68.485 101.112 68.11 100.752 67.9C100.422 67.66 99.9424 67.54 99.3124 67.54H96.9274V76H88.4674ZM96.9274 61.06H101.382C102.612 61.06 103.557 60.745 104.217 60.115C104.907 59.455 105.252 58.525 105.252 57.325C105.252 54.775 104.052 53.5 101.652 53.5H96.9274V61.06ZM131.628 76.45C126.378 76.45 122.373 75.16 119.613 72.58C116.853 70 115.473 66.355 115.473 61.645C115.473 56.785 116.823 53.065 119.523 50.485C122.223 47.875 126.243 46.57 131.583 46.57C133.383 46.57 134.988 46.705 136.398 46.975C137.808 47.245 139.158 47.62 140.448 48.1V55.48C137.868 54.34 135.108 53.77 132.168 53.77C129.438 53.77 127.413 54.4 126.093 55.66C124.773 56.89 124.113 58.885 124.113 61.645C124.113 64.345 124.803 66.295 126.183 67.495C127.593 68.665 129.618 69.25 132.258 69.25C133.698 69.25 135.093 69.115 136.443 68.845C137.823 68.575 139.188 68.155 140.538 67.585V75.01C139.248 75.46 137.883 75.805 136.443 76.045C135.033 76.315 133.428 76.45 131.628 76.45ZM141.928 76L153.043 47.02H161.998L173.113 76H164.293L161.863 69.835H153.133L150.748 76H141.928ZM154.258 63.76H160.738L157.498 55.255L154.258 63.76ZM176.27 76V47.02H189.23C192.2 47.02 194.735 47.515 196.835 48.505C198.935 49.465 200.54 51.025 201.65 53.185C202.76 55.315 203.315 58.15 203.315 61.69C203.315 66.67 202.1 70.3 199.67 72.58C197.24 74.86 193.76 76 189.23 76H176.27ZM184.73 69.52H188.15C189.56 69.52 190.745 69.325 191.705 68.935C192.665 68.515 193.4 67.75 193.91 66.64C194.42 65.5 194.675 63.85 194.675 61.69C194.675 59.53 194.435 57.865 193.955 56.695C193.505 55.495 192.8 54.67 191.84 54.22C190.88 53.74 189.65 53.5 188.15 53.5H184.73V69.52ZM206.461 76V47.02H228.421V53.5H214.921V58.225H226.756V64.795H214.921V69.52H228.421V76H206.461Z" fill="#E64D48"/>
<path d="M54.125 76L49.4566 74.2095L46.8522 81H54.125V76ZM65.24 47.02V42.02H61.8026L60.5716 45.2295L65.24 47.02ZM74.195 47.02L78.8634 45.2295L77.6324 42.02H74.195V47.02ZM85.31 76V81H92.5829L89.9784 74.2095L85.31 76ZM76.49 76L71.8383 77.8335L73.0864 81H76.49V76ZM74.06 69.835L78.7117 68.0015L77.4636 64.835H74.06V69.835ZM65.33 69.835V64.835H61.9032L60.6668 68.031L65.33 69.835ZM62.945 76V81H66.3718L67.6082 77.804L62.945 76ZM66.455 63.76L61.7826 61.98L59.1997 68.76H66.455V63.76ZM72.935 63.76V68.76H80.1903L77.6074 61.98L72.935 63.76ZM69.695 55.255L74.3674 53.475L69.695 41.2099L65.0226 53.475L69.695 55.255ZM58.7934 77.7905L69.9084 48.8105L60.5716 45.2295L49.4566 74.2095L58.7934 77.7905ZM65.24 52.02H74.195V42.02H65.24V52.02ZM69.5266 48.8105L80.6416 77.7905L89.9784 74.2095L78.8634 45.2295L69.5266 48.8105ZM85.31 71H76.49V81H85.31V71ZM81.1417 74.1665L78.7117 68.0015L69.4083 71.6685L71.8383 77.8335L81.1417 74.1665ZM74.06 64.835H65.33V74.835H74.06V64.835ZM60.6668 68.031L58.2818 74.196L67.6082 77.804L69.9932 71.639L60.6668 68.031ZM62.945 71H54.125V81H62.945V71ZM66.455 68.76H72.935V58.76H66.455V68.76ZM77.6074 61.98L74.3674 53.475L65.0226 57.035L68.2626 65.54L77.6074 61.98ZM65.0226 53.475L61.7826 61.98L71.1274 65.54L74.3674 57.035L65.0226 53.475ZM88.4674 76H83.4674V81H88.4674V76ZM88.4674 47.02V42.02H83.4674V47.02H88.4674ZM109.347 48.325L106.839 52.6502L106.857 52.6609L106.876 52.6715L109.347 48.325ZM112.767 51.97L108.261 54.1365L108.269 54.1537L108.278 54.1708L112.767 51.97ZM112.407 62.5L108.234 59.7458L108.228 59.7559L108.221 59.7661L112.407 62.5ZM108.537 65.875L106.368 61.37L99.2968 64.7748L105.371 69.7448L108.537 65.875ZM109.392 66.865L105.134 69.4855L105.182 69.5629L105.232 69.6385L109.392 66.865ZM110.202 68.395L114.783 66.3895L114.769 66.3576L114.754 66.326L110.202 68.395ZM113.532 76V81H121.18L118.113 73.9945L113.532 76ZM104.712 76L100.134 78.0087L101.446 81H104.712V76ZM101.652 69.025L106.231 67.0163L106.226 67.0053L106.221 66.9943L101.652 69.025ZM100.752 67.9L97.8115 71.9437L98.0153 72.0919L98.233 72.2189L100.752 67.9ZM96.9274 67.54V62.54H91.9274V67.54H96.9274ZM96.9274 76V81H101.927V76H96.9274ZM96.9274 61.06H91.9274V66.06H96.9274V61.06ZM104.217 60.115L107.67 63.7318L107.673 63.7282L104.217 60.115ZM96.9274 53.5V48.5H91.9274V53.5H96.9274ZM93.4674 76V47.02H83.4674V76H93.4674ZM88.4674 52.02H103.542V42.02H88.4674V52.02ZM103.542 52.02C105.341 52.02 106.33 52.3553 106.839 52.6502L111.856 43.9998C109.364 42.5547 106.484 42.02 103.542 42.02V52.02ZM106.876 52.6715C107.538 53.0477 107.96 53.5095 108.261 54.1365L117.274 49.8035C116.075 47.3105 114.217 45.3423 111.819 43.9785L106.876 52.6715ZM108.278 54.1708C108.632 54.8936 108.892 55.8991 108.892 57.325H118.892C118.892 54.6709 118.403 52.1064 117.257 49.7692L108.278 54.1708ZM108.892 57.325C108.892 58.3827 108.639 59.1327 108.234 59.7458L116.58 65.2542C118.156 62.8673 118.892 60.1673 118.892 57.325H108.892ZM108.221 59.7661C107.772 60.4538 107.188 60.9754 106.368 61.37L110.706 70.38C113.127 69.2146 115.123 67.4862 116.594 65.2339L108.221 59.7661ZM105.371 69.7448C105.239 69.6368 105.164 69.5347 105.134 69.4855L113.651 64.2445C113.14 63.4153 112.495 62.6532 111.704 62.0052L105.371 69.7448ZM105.232 69.6385C105.231 69.6366 105.242 69.6529 105.265 69.6917C105.287 69.7301 105.318 69.7844 105.356 69.8569C105.434 70.0041 105.532 70.2035 105.651 70.464L114.754 66.326C114.406 65.561 114.008 64.7747 113.553 64.0915L105.232 69.6385ZM105.622 70.4005L108.952 78.0055L118.113 73.9945L114.783 66.3895L105.622 70.4005ZM113.532 71H104.712V81H113.532V71ZM109.291 73.9913L106.231 67.0163L97.0736 71.0337L100.134 78.0087L109.291 73.9913ZM106.221 66.9943C105.727 65.8828 104.846 64.4995 103.272 63.5811L98.233 72.2189C97.3786 71.7205 97.0973 71.0872 97.0833 71.0557L106.221 66.9943ZM103.693 63.8563C102.157 62.7393 100.461 62.54 99.3124 62.54V72.54C99.312 72.54 99.3039 72.54 99.2888 72.5392C99.2736 72.5385 99.2503 72.5369 99.2193 72.5335C99.1589 72.527 99.0603 72.5127 98.9322 72.4807C98.6786 72.4173 98.263 72.2721 97.8115 71.9437L103.693 63.8563ZM99.3124 62.54H96.9274V72.54H99.3124V62.54ZM91.9274 67.54V76H101.927V67.54H91.9274ZM96.9274 71H88.4674V81H96.9274V71ZM96.9274 66.06H101.382V56.06H96.9274V66.06ZM101.382 66.06C103.441 66.06 105.794 65.5219 107.67 63.7318L100.765 56.4982C101.016 56.2591 101.271 56.1342 101.432 56.0803C101.573 56.0334 101.581 56.06 101.382 56.06V66.06ZM107.673 63.7282C109.59 61.8955 110.252 59.5176 110.252 57.325H100.252C100.252 57.4523 100.234 57.3781 100.306 57.1835C100.386 56.9669 100.538 56.7157 100.761 56.5018L107.673 63.7282ZM110.252 57.325C110.252 55.3522 109.794 52.9426 107.993 51.0294C106.139 49.0593 103.703 48.5 101.652 48.5V58.5C101.824 58.5 101.762 58.5243 101.558 58.4522C101.327 58.3704 101.005 58.1952 100.711 57.8831C100.111 57.2449 100.252 56.7478 100.252 57.325H110.252ZM101.652 48.5H96.9274V58.5H101.652V48.5ZM91.9274 53.5V61.06H101.927V53.5H91.9274ZM119.613 72.58L123.027 68.9274L119.613 72.58ZM119.523 50.485L122.977 54.1L122.987 54.09L122.998 54.0799L119.523 50.485ZM140.448 48.1H145.448V44.6255L142.191 43.4139L140.448 48.1ZM140.448 55.48L138.427 60.0534L145.448 63.1557V55.48H140.448ZM126.093 55.66L129.501 59.318L129.523 59.2975L129.545 59.2768L126.093 55.66ZM126.183 67.495L122.902 71.268L122.945 71.3059L122.99 71.3428L126.183 67.495ZM136.443 68.845L135.483 63.938L135.472 63.94L135.462 63.9421L136.443 68.845ZM140.538 67.585H145.538V60.0465L138.593 62.9788L140.538 67.585ZM140.538 75.01L142.185 79.731L145.538 78.5613V75.01H140.538ZM136.443 76.045L135.621 71.113L135.561 71.1229L135.502 71.1342L136.443 76.045ZM131.628 71.45C127.148 71.45 124.552 70.353 123.027 68.9274L116.198 76.2326C120.193 79.967 125.607 81.45 131.628 81.45V71.45ZM123.027 68.9274C121.517 67.5162 120.473 65.3354 120.473 61.645H110.473C110.473 67.3746 112.188 72.4838 116.198 76.2326L123.027 68.9274ZM120.473 61.645C120.473 57.7186 121.538 55.4749 122.977 54.1L116.068 46.87C112.107 50.6551 110.473 55.8514 110.473 61.645H120.473ZM122.998 54.0799C124.434 52.6919 126.99 51.57 131.583 51.57V41.57C125.495 41.57 120.012 43.0581 116.048 46.8901L122.998 54.0799ZM131.583 51.57C133.143 51.57 134.424 51.6878 135.457 51.8858L137.338 42.0642C135.552 41.7222 133.623 41.57 131.583 41.57V51.57ZM135.457 51.8858C136.605 52.1056 137.686 52.4073 138.704 52.7861L142.191 43.4139C140.629 42.8327 139.01 42.3844 137.338 42.0642L135.457 51.8858ZM135.448 48.1V55.48H145.448V48.1H135.448ZM142.468 50.9066C139.225 49.4734 135.773 48.77 132.168 48.77V58.77C134.442 58.77 136.51 59.2066 138.427 60.0534L142.468 50.9066ZM132.168 48.77C128.778 48.77 125.262 49.5408 122.64 52.0432L129.545 59.2768C129.563 59.2592 130.097 58.77 132.168 58.77V48.77ZM122.684 52.002C119.917 54.5804 119.113 58.2262 119.113 61.645H129.113C129.113 59.5438 129.628 59.1996 129.501 59.318L122.684 52.002ZM119.113 61.645C119.113 65.0911 119.993 68.7389 122.902 71.268L129.464 63.722C129.612 63.851 129.113 63.5989 129.113 61.645H119.113ZM122.99 71.3428C125.62 73.5253 128.954 74.25 132.258 74.25V64.25C130.281 64.25 129.565 63.8047 129.376 63.6472L122.99 71.3428ZM132.258 74.25C134.012 74.25 135.736 74.0854 137.423 73.7479L135.462 63.9421C134.449 64.1446 133.383 64.25 132.258 64.25V74.25ZM137.403 73.752C139.134 73.4132 140.829 72.8895 142.483 72.1912L138.593 62.9788C137.547 63.4205 136.511 63.7368 135.483 63.938L137.403 73.752ZM135.538 67.585V75.01H145.538V67.585H135.538ZM138.891 70.289C137.887 70.6392 136.799 70.9166 135.621 71.113L137.265 80.977C138.966 80.6934 140.608 80.2808 142.185 79.731L138.891 70.289ZM135.502 71.1342C134.469 71.3322 133.188 71.45 131.628 71.45V81.45C133.668 81.45 135.597 81.2978 137.383 80.9558L135.502 71.1342ZM141.928 76L137.259 74.2095L134.655 81H141.928V76ZM153.043 47.02V42.02H149.605L148.374 45.2295L153.043 47.02ZM161.998 47.02L166.666 45.2295L165.435 42.02H161.998V47.02ZM173.113 76V81H180.386L177.781 74.2095L173.113 76ZM164.293 76L159.641 77.8335L160.889 81H164.293V76ZM161.863 69.835L166.514 68.0015L165.266 64.835H161.863V69.835ZM153.133 69.835V64.835H149.706L148.47 68.031L153.133 69.835ZM150.748 76V81H154.175L155.411 77.804L150.748 76ZM154.258 63.76L149.585 61.98L147.002 68.76H154.258V63.76ZM160.738 63.76V68.76H167.993L165.41 61.98L160.738 63.76ZM157.498 55.255L162.17 53.475L157.498 41.2099L152.825 53.475L157.498 55.255ZM146.596 77.7905L157.711 48.8105L148.374 45.2295L137.259 74.2095L146.596 77.7905ZM153.043 52.02H161.998V42.02H153.043V52.02ZM157.329 48.8105L168.444 77.7905L177.781 74.2095L166.666 45.2295L157.329 48.8105ZM173.113 71H164.293V81H173.113V71ZM168.944 74.1665L166.514 68.0015L157.211 71.6685L159.641 77.8335L168.944 74.1665ZM161.863 64.835H153.133V74.835H161.863V64.835ZM148.47 68.031L146.085 74.196L155.411 77.804L157.796 71.639L148.47 68.031ZM150.748 71H141.928V81H150.748V71ZM154.258 68.76H160.738V58.76H154.258V68.76ZM165.41 61.98L162.17 53.475L152.825 57.035L156.065 65.54L165.41 61.98ZM152.825 53.475L149.585 61.98L158.93 65.54L162.17 57.035L152.825 53.475ZM176.27 76H171.27V81H176.27V76ZM176.27 47.02V42.02H171.27V47.02H176.27ZM196.835 48.505L194.703 53.0276L194.73 53.0402L194.756 53.0524L196.835 48.505ZM201.65 53.185L197.203 55.4703L197.209 55.483L197.216 55.4957L201.65 53.185ZM199.67 72.58L196.249 68.9337V68.9337L199.67 72.58ZM184.73 69.52H179.73V74.52H184.73V69.52ZM191.705 68.935L193.587 73.5673L193.648 73.5424L193.709 73.5158L191.705 68.935ZM193.91 66.64L198.454 68.7275L198.464 68.7047L198.474 68.6818L193.91 66.64ZM193.955 56.695L189.273 58.4506L189.3 58.5221L189.329 58.5928L193.955 56.695ZM191.84 54.22L189.604 58.6921L189.661 58.7204L189.718 58.7473L191.84 54.22ZM184.73 53.5V48.5H179.73V53.5H184.73ZM181.27 76V47.02H171.27V76H181.27ZM176.27 52.02H189.23V42.02H176.27V52.02ZM189.23 52.02C191.662 52.02 193.429 52.427 194.703 53.0276L198.967 43.9824C196.041 42.603 192.739 42.02 189.23 42.02V52.02ZM194.756 53.0524C195.78 53.5203 196.578 54.2533 197.203 55.4703L206.097 50.8997C204.503 47.7967 202.09 45.4097 198.914 43.9576L194.756 53.0524ZM197.216 55.4957C197.82 56.6543 198.315 58.6021 198.315 61.69H208.315C208.315 57.6979 207.7 53.9757 206.084 50.8743L197.216 55.4957ZM198.315 61.69C198.315 65.9714 197.263 67.9819 196.249 68.9337L203.091 76.2263C206.937 72.6181 208.315 67.3686 208.315 61.69H198.315ZM196.249 68.9337C195.036 70.0713 192.953 71 189.23 71V81C194.567 81 199.444 79.6487 203.091 76.2263L196.249 68.9337ZM189.23 71H176.27V81H189.23V71ZM184.73 74.52H188.15V64.52H184.73V74.52ZM188.15 74.52C189.987 74.52 191.856 74.2706 193.587 73.5673L189.823 64.3027C189.634 64.3794 189.133 64.52 188.15 64.52V74.52ZM193.709 73.5158C195.976 72.5241 197.522 70.7558 198.454 68.7275L189.367 64.5525C189.31 64.675 189.297 64.6588 189.371 64.5821C189.407 64.5446 189.456 64.5007 189.518 64.4575C189.58 64.4141 189.643 64.3796 189.701 64.3542L193.709 73.5158ZM198.474 68.6818C199.409 66.5923 199.675 64.1135 199.675 61.69H189.675C189.675 63.5865 189.431 64.4077 189.346 64.5982L198.474 68.6818ZM199.675 61.69C199.675 59.2746 199.423 56.8508 198.581 54.7972L189.329 58.5928C189.447 58.8792 189.675 59.7854 189.675 61.69H199.675ZM198.637 54.9394C197.83 52.7883 196.344 50.8089 193.962 49.6927L189.718 58.7473C189.637 58.7091 189.552 58.6589 189.472 58.5976C189.393 58.5365 189.331 58.4755 189.288 58.4245C189.201 58.3225 189.217 58.2992 189.273 58.4506L198.637 54.9394ZM194.076 49.7479C192.202 48.8108 190.136 48.5 188.15 48.5V58.5C189.164 58.5 189.558 58.6692 189.604 58.6921L194.076 49.7479ZM188.15 48.5H184.73V58.5H188.15V48.5ZM179.73 53.5V69.52H189.73V53.5H179.73ZM206.461 76H201.461V81H206.461V76ZM206.461 47.02V42.02H201.461V47.02H206.461ZM228.421 47.02H233.421V42.02H228.421V47.02ZM228.421 53.5V58.5H233.421V53.5H228.421ZM214.921 53.5V48.5H209.921V53.5H214.921ZM214.921 58.225H209.921V63.225H214.921V58.225ZM226.756 58.225H231.756V53.225H226.756V58.225ZM226.756 64.795V69.795H231.756V64.795H226.756ZM214.921 64.795V59.795H209.921V64.795H214.921ZM214.921 69.52H209.921V74.52H214.921V69.52ZM228.421 69.52H233.421V64.52H228.421V69.52ZM228.421 76V81H233.421V76H228.421ZM211.461 76V47.02H201.461V76H211.461ZM206.461 52.02H228.421V42.02H206.461V52.02ZM223.421 47.02V53.5H233.421V47.02H223.421ZM228.421 48.5H214.921V58.5H228.421V48.5ZM209.921 53.5V58.225H219.921V53.5H209.921ZM214.921 63.225H226.756V53.225H214.921V63.225ZM221.756 58.225V64.795H231.756V58.225H221.756ZM226.756 59.795H214.921V69.795H226.756V59.795ZM209.921 64.795V69.52H219.921V64.795H209.921ZM214.921 74.52H228.421V64.52H214.921V74.52ZM223.421 69.52V76H233.421V69.52H223.421ZM228.421 71H206.461V81H228.421V71Z" fill="#FFFCC1" mask="url(#path-2-outside-1_100_1733)"/>
</g>
<g filter="url(#filter3_d_100_1733)">
<mask id="path-4-outside-2_100_1733" maskUnits="userSpaceOnUse" x="4" y="75" width="271" height="41" fill="black">
<rect fill="white" x="4" y="75" width="271" height="41"/>
<path d="M12.125 110L23.24 81.02H32.195L43.31 110H34.49L32.06 103.835H23.33L20.945 110H12.125ZM24.455 97.76H30.935L27.695 89.255L24.455 97.76ZM46.4674 110V81.02H59.4274C62.3974 81.02 64.9324 81.515 67.0324 82.505C69.1324 83.465 70.7374 85.025 71.8474 87.185C72.9574 89.315 73.5124 92.15 73.5124 95.69C73.5124 100.67 72.2974 104.3 69.8674 106.58C67.4374 108.86 63.9574 110 59.4274 110H46.4674ZM54.9274 103.52H58.3474C59.7574 103.52 60.9424 103.325 61.9024 102.935C62.8624 102.515 63.5974 101.75 64.1074 100.64C64.6174 99.5 64.8724 97.85 64.8724 95.69C64.8724 93.53 64.6324 91.865 64.1524 90.695C63.7024 89.495 62.9974 88.67 62.0374 88.22C61.0774 87.74 59.8474 87.5 58.3474 87.5H54.9274V103.52ZM85.0711 110L73.9561 81.02H82.7761L89.5261 100.19L96.2761 81.02H105.141L94.0261 110H85.0711ZM107.639 110V81.02H129.599V87.5H116.099V92.225H127.934V98.795H116.099V103.52H129.599V110H107.639ZM132.293 110V81.02H139.493L150.428 96.365V81.02H158.888V110H151.643L140.753 94.7V110H132.293ZM169.267 110V87.32H161.122V81.02H185.872V87.32H177.727V110H169.267ZM201.603 110.45C198.903 110.45 196.518 110.015 194.448 109.145C192.408 108.245 190.803 106.94 189.633 105.23C188.463 103.49 187.878 101.36 187.878 98.84V81.02H196.338V97.94C196.338 101.48 198.093 103.25 201.603 103.25C203.283 103.25 204.573 102.815 205.473 101.945C206.373 101.075 206.823 99.74 206.823 97.94V81.02H215.283V98.84C215.283 101.36 214.698 103.49 213.528 105.23C212.388 106.94 210.783 108.245 208.713 109.145C206.673 110.015 204.303 110.45 201.603 110.45ZM219.129 110V81.02H234.204C236.574 81.02 238.509 81.455 240.009 82.325C241.539 83.195 242.679 84.41 243.429 85.97C244.179 87.5 244.554 89.285 244.554 91.325C244.554 93.275 244.059 95 243.069 96.5C242.109 97.97 240.819 99.095 239.199 99.875C239.529 100.145 239.814 100.475 240.054 100.865C240.294 101.225 240.564 101.735 240.864 102.395L244.194 110H235.374L232.314 103.025C232.074 102.485 231.774 102.11 231.414 101.9C231.084 101.66 230.604 101.54 229.974 101.54H227.589V110H219.129ZM227.589 95.06H232.044C233.274 95.06 234.219 94.745 234.879 94.115C235.569 93.455 235.914 92.525 235.914 91.325C235.914 88.775 234.714 87.5 232.314 87.5H227.589V95.06ZM247.693 110V81.02H269.653V87.5H256.153V92.225H267.988V98.795H256.153V103.52H269.653V110H247.693Z"/>
</mask>
<path d="M12.125 110L23.24 81.02H32.195L43.31 110H34.49L32.06 103.835H23.33L20.945 110H12.125ZM24.455 97.76H30.935L27.695 89.255L24.455 97.76ZM46.4674 110V81.02H59.4274C62.3974 81.02 64.9324 81.515 67.0324 82.505C69.1324 83.465 70.7374 85.025 71.8474 87.185C72.9574 89.315 73.5124 92.15 73.5124 95.69C73.5124 100.67 72.2974 104.3 69.8674 106.58C67.4374 108.86 63.9574 110 59.4274 110H46.4674ZM54.9274 103.52H58.3474C59.7574 103.52 60.9424 103.325 61.9024 102.935C62.8624 102.515 63.5974 101.75 64.1074 100.64C64.6174 99.5 64.8724 97.85 64.8724 95.69C64.8724 93.53 64.6324 91.865 64.1524 90.695C63.7024 89.495 62.9974 88.67 62.0374 88.22C61.0774 87.74 59.8474 87.5 58.3474 87.5H54.9274V103.52ZM85.0711 110L73.9561 81.02H82.7761L89.5261 100.19L96.2761 81.02H105.141L94.0261 110H85.0711ZM107.639 110V81.02H129.599V87.5H116.099V92.225H127.934V98.795H116.099V103.52H129.599V110H107.639ZM132.293 110V81.02H139.493L150.428 96.365V81.02H158.888V110H151.643L140.753 94.7V110H132.293ZM169.267 110V87.32H161.122V81.02H185.872V87.32H177.727V110H169.267ZM201.603 110.45C198.903 110.45 196.518 110.015 194.448 109.145C192.408 108.245 190.803 106.94 189.633 105.23C188.463 103.49 187.878 101.36 187.878 98.84V81.02H196.338V97.94C196.338 101.48 198.093 103.25 201.603 103.25C203.283 103.25 204.573 102.815 205.473 101.945C206.373 101.075 206.823 99.74 206.823 97.94V81.02H215.283V98.84C215.283 101.36 214.698 103.49 213.528 105.23C212.388 106.94 210.783 108.245 208.713 109.145C206.673 110.015 204.303 110.45 201.603 110.45ZM219.129 110V81.02H234.204C236.574 81.02 238.509 81.455 240.009 82.325C241.539 83.195 242.679 84.41 243.429 85.97C244.179 87.5 244.554 89.285 244.554 91.325C244.554 93.275 244.059 95 243.069 96.5C242.109 97.97 240.819 99.095 239.199 99.875C239.529 100.145 239.814 100.475 240.054 100.865C240.294 101.225 240.564 101.735 240.864 102.395L244.194 110H235.374L232.314 103.025C232.074 102.485 231.774 102.11 231.414 101.9C231.084 101.66 230.604 101.54 229.974 101.54H227.589V110H219.129ZM227.589 95.06H232.044C233.274 95.06 234.219 94.745 234.879 94.115C235.569 93.455 235.914 92.525 235.914 91.325C235.914 88.775 234.714 87.5 232.314 87.5H227.589V95.06ZM247.693 110V81.02H269.653V87.5H256.153V92.225H267.988V98.795H256.153V103.52H269.653V110H247.693Z" fill="#E64D48"/>
<path d="M12.125 110L7.45659 108.209L4.85215 115H12.125V110ZM23.24 81.02V76.02H19.8026L18.5716 79.2295L23.24 81.02ZM32.195 81.02L36.8634 79.2295L35.6324 76.02H32.195V81.02ZM43.31 110V115H50.5829L47.9784 108.209L43.31 110ZM34.49 110L29.8383 111.834L31.0864 115H34.49V110ZM32.06 103.835L36.7117 102.001L35.4636 98.835H32.06V103.835ZM23.33 103.835V98.835H19.9032L18.6668 102.031L23.33 103.835ZM20.945 110V115H24.3718L25.6082 111.804L20.945 110ZM24.455 97.76L19.7826 95.98L17.1997 102.76H24.455V97.76ZM30.935 97.76V102.76H38.1903L35.6074 95.98L30.935 97.76ZM27.695 89.255L32.3674 87.475L27.695 75.2099L23.0226 87.475L27.695 89.255ZM16.7934 111.791L27.9084 82.8105L18.5716 79.2295L7.45659 108.209L16.7934 111.791ZM23.24 86.02H32.195V76.02H23.24V86.02ZM27.5266 82.8105L38.6416 111.791L47.9784 108.209L36.8634 79.2295L27.5266 82.8105ZM43.31 105H34.49V115H43.31V105ZM39.1417 108.166L36.7117 102.001L27.4083 105.669L29.8383 111.834L39.1417 108.166ZM32.06 98.835H23.33V108.835H32.06V98.835ZM18.6668 102.031L16.2818 108.196L25.6082 111.804L27.9932 105.639L18.6668 102.031ZM20.945 105H12.125V115H20.945V105ZM24.455 102.76H30.935V92.76H24.455V102.76ZM35.6074 95.98L32.3674 87.475L23.0226 91.035L26.2626 99.54L35.6074 95.98ZM23.0226 87.475L19.7826 95.98L29.1274 99.54L32.3674 91.035L23.0226 87.475ZM46.4674 110H41.4674V115H46.4674V110ZM46.4674 81.02V76.02H41.4674V81.02H46.4674ZM67.0324 82.505L64.9003 87.0276L64.9269 87.0402L64.9536 87.0524L67.0324 82.505ZM71.8474 87.185L67.4002 89.4703L67.4067 89.483L67.4133 89.4957L71.8474 87.185ZM69.8674 106.58L66.4462 102.934L66.4462 102.934L69.8674 106.58ZM54.9274 103.52H49.9274V108.52H54.9274V103.52ZM61.9024 102.935L63.7843 107.567L63.8457 107.542L63.9065 107.516L61.9024 102.935ZM64.1074 100.64L68.6508 102.728L68.6612 102.705L68.6715 102.682L64.1074 100.64ZM64.1524 90.695L59.4707 92.4506L59.4976 92.5221L59.5265 92.5928L64.1524 90.695ZM62.0374 88.22L59.8013 92.6921L59.8579 92.7204L59.9152 92.7473L62.0374 88.22ZM54.9274 87.5V82.5H49.9274V87.5H54.9274ZM51.4674 110V81.02H41.4674V110H51.4674ZM46.4674 86.02H59.4274V76.02H46.4674V86.02ZM59.4274 86.02C61.859 86.02 63.6262 86.427 64.9003 87.0276L69.1645 77.9824C66.2386 76.603 62.9358 76.02 59.4274 76.02V86.02ZM64.9536 87.0524C65.9772 87.5203 66.7748 88.2533 67.4002 89.4703L76.2945 84.8997C74.7 81.7967 72.2876 79.4097 69.1112 77.9576L64.9536 87.0524ZM67.4133 89.4957C68.0171 90.6543 68.5124 92.6021 68.5124 95.69H78.5124C78.5124 91.6979 77.8977 87.9757 76.2814 84.8743L67.4133 89.4957ZM68.5124 95.69C68.5124 99.9714 67.4606 101.982 66.4462 102.934L73.2886 110.226C77.1342 106.618 78.5124 101.369 78.5124 95.69H68.5124ZM66.4462 102.934C65.2337 104.071 63.1506 105 59.4274 105V115C64.7641 115 69.641 113.649 73.2886 110.226L66.4462 102.934ZM59.4274 105H46.4674V115H59.4274V105ZM54.9274 108.52H58.3474V98.52H54.9274V108.52ZM58.3474 108.52C60.1843 108.52 62.0531 108.271 63.7843 107.567L60.0205 98.3027C59.8317 98.3794 59.3304 98.52 58.3474 98.52V108.52ZM63.9065 107.516C66.1732 106.524 67.7188 104.756 68.6508 102.728L59.564 98.5525C59.5077 98.675 59.4945 98.6588 59.5681 98.5821C59.6042 98.5446 59.6534 98.5007 59.7153 98.4575C59.7773 98.4141 59.8402 98.3796 59.8983 98.3542L63.9065 107.516ZM68.6715 102.682C69.6063 100.592 69.8724 98.1135 69.8724 95.69H59.8724C59.8724 97.5865 59.6285 98.4077 59.5433 98.5982L68.6715 102.682ZM69.8724 95.69C69.8724 93.2746 69.6207 90.8508 68.7782 88.7972L59.5265 92.5928C59.6441 92.8792 59.8724 93.7854 59.8724 95.69H69.8724ZM68.834 88.9394C68.0274 86.7883 66.5409 84.8089 64.1596 83.6927L59.9152 92.7473C59.8338 92.7091 59.7497 92.6589 59.6697 92.5976C59.5899 92.5365 59.5285 92.4755 59.485 92.4245C59.3978 92.3225 59.414 92.2992 59.4707 92.4506L68.834 88.9394ZM64.2734 83.7479C62.3994 82.8108 60.3335 82.5 58.3474 82.5V92.5C59.3613 92.5 59.7554 92.6692 59.8013 92.6921L64.2734 83.7479ZM58.3474 82.5H54.9274V92.5H58.3474V82.5ZM49.9274 87.5V103.52H59.9274V87.5H49.9274ZM85.0711 110L80.4026 111.791L81.6336 115H85.0711V110ZM73.9561 81.02V76.02H66.6832L69.2876 82.8105L73.9561 81.02ZM82.7761 81.02L87.4922 79.3594L86.3164 76.02H82.7761V81.02ZM89.5261 100.19L84.8099 101.851L89.5261 115.245L94.2422 101.851L89.5261 100.19ZM96.2761 81.02V76.02H92.7357L91.5599 79.3594L96.2761 81.02ZM105.141 81.02L109.809 82.8105L112.414 76.02H105.141V81.02ZM94.0261 110V115H97.4635L98.6945 111.791L94.0261 110ZM89.7395 108.209L78.6245 79.2295L69.2876 82.8105L80.4026 111.791L89.7395 108.209ZM73.9561 86.02H82.7761V76.02H73.9561V86.02ZM78.0599 82.6806L84.8099 101.851L94.2422 98.5294L87.4922 79.3594L78.0599 82.6806ZM94.2422 101.851L100.992 82.6806L91.5599 79.3594L84.8099 98.5294L94.2422 101.851ZM96.2761 86.02H105.141V76.02H96.2761V86.02ZM100.473 79.2295L89.3577 108.209L98.6945 111.791L109.809 82.8105L100.473 79.2295ZM94.0261 105H85.0711V115H94.0261V105ZM107.639 110H102.639V115H107.639V110ZM107.639 81.02V76.02H102.639V81.02H107.639ZM129.599 81.02H134.599V76.02H129.599V81.02ZM129.599 87.5V92.5H134.599V87.5H129.599ZM116.099 87.5V82.5H111.099V87.5H116.099ZM116.099 92.225H111.099V97.225H116.099V92.225ZM127.934 92.225H132.934V87.225H127.934V92.225ZM127.934 98.795V103.795H132.934V98.795H127.934ZM116.099 98.795V93.795H111.099V98.795H116.099ZM116.099 103.52H111.099V108.52H116.099V103.52ZM129.599 103.52H134.599V98.52H129.599V103.52ZM129.599 110V115H134.599V110H129.599ZM112.639 110V81.02H102.639V110H112.639ZM107.639 86.02H129.599V76.02H107.639V86.02ZM124.599 81.02V87.5H134.599V81.02H124.599ZM129.599 82.5H116.099V92.5H129.599V82.5ZM111.099 87.5V92.225H121.099V87.5H111.099ZM116.099 97.225H127.934V87.225H116.099V97.225ZM122.934 92.225V98.795H132.934V92.225H122.934ZM127.934 93.795H116.099V103.795H127.934V93.795ZM111.099 98.795V103.52H121.099V98.795H111.099ZM116.099 108.52H129.599V98.52H116.099V108.52ZM124.599 103.52V110H134.599V103.52H124.599ZM129.599 105H107.639V115H129.599V105ZM132.293 110H127.293V115H132.293V110ZM132.293 81.02V76.02H127.293V81.02H132.293ZM139.493 81.02L143.564 78.1183L142.069 76.02H139.493V81.02ZM150.428 96.365L146.356 99.2667L155.428 111.997V96.365H150.428ZM150.428 81.02V76.02H145.428V81.02H150.428ZM158.888 81.02H163.888V76.02H158.888V81.02ZM158.888 110V115H163.888V110H158.888ZM151.643 110L147.569 112.899L149.064 115H151.643V110ZM140.753 94.7L144.826 91.8006L135.753 79.0527V94.7H140.753ZM140.753 110V115H145.753V110H140.753ZM137.293 110V81.02H127.293V110H137.293ZM132.293 86.02H139.493V76.02H132.293V86.02ZM135.421 83.9217L146.356 99.2667L154.499 93.4633L143.564 78.1183L135.421 83.9217ZM155.428 96.365V81.02H145.428V96.365H155.428ZM150.428 86.02H158.888V76.02H150.428V86.02ZM153.888 81.02V110H163.888V81.02H153.888ZM158.888 105H151.643V115H158.888V105ZM155.716 107.101L144.826 91.8006L136.679 97.5994L147.569 112.899L155.716 107.101ZM135.753 94.7V110H145.753V94.7H135.753ZM140.753 105H132.293V115H140.753V105ZM169.267 110H164.267V115H169.267V110ZM169.267 87.32H174.267V82.32H169.267V87.32ZM161.122 87.32H156.122V92.32H161.122V87.32ZM161.122 81.02V76.02H156.122V81.02H161.122ZM185.872 81.02H190.872V76.02H185.872V81.02ZM185.872 87.32V92.32H190.872V87.32H185.872ZM177.727 87.32V82.32H172.727V87.32H177.727ZM177.727 110V115H182.727V110H177.727ZM174.267 110V87.32H164.267V110H174.267ZM169.267 82.32H161.122V92.32H169.267V82.32ZM166.122 87.32V81.02H156.122V87.32H166.122ZM161.122 86.02H185.872V76.02H161.122V86.02ZM180.872 81.02V87.32H190.872V81.02H180.872ZM185.872 82.32H177.727V92.32H185.872V82.32ZM172.727 87.32V110H182.727V87.32H172.727ZM177.727 105H169.267V115H177.727V105ZM194.448 109.145L192.43 113.72L192.47 113.737L192.511 113.754L194.448 109.145ZM189.633 105.23L185.484 108.02L185.495 108.037L185.507 108.053L189.633 105.23ZM187.878 81.02V76.02H182.878V81.02H187.878ZM196.338 81.02H201.338V76.02H196.338V81.02ZM206.823 81.02V76.02H201.823V81.02H206.823ZM215.283 81.02H220.283V76.02H215.283V81.02ZM213.528 105.23L209.379 102.44L209.373 102.448L209.368 102.457L213.528 105.23ZM208.713 109.145L210.675 113.744L210.691 113.737L210.707 113.73L208.713 109.145ZM201.603 105.45C199.437 105.45 197.731 105.101 196.385 104.536L192.511 113.754C195.305 114.929 198.37 115.45 201.603 115.45V105.45ZM196.466 104.57C195.211 104.017 194.364 103.289 193.76 102.407L185.507 108.053C187.243 110.591 189.605 112.473 192.43 113.72L196.466 104.57ZM193.782 102.44C193.271 101.679 192.878 100.57 192.878 98.84H182.878C182.878 102.15 183.656 105.301 185.484 108.02L193.782 102.44ZM192.878 98.84V81.02H182.878V98.84H192.878ZM187.878 86.02H196.338V76.02H187.878V86.02ZM191.338 81.02V97.94H201.338V81.02H191.338ZM191.338 97.94C191.338 100.47 191.967 103.288 194.104 105.443C196.248 107.606 199.067 108.25 201.603 108.25V98.25C201.131 98.25 200.923 98.1888 200.893 98.1788C200.883 98.1754 200.919 98.1866 200.983 98.2255C201.049 98.2655 201.128 98.3241 201.205 98.402C201.282 98.4799 201.338 98.5569 201.376 98.6194C201.412 98.6801 201.42 98.7108 201.415 98.6941C201.4 98.6505 201.338 98.4269 201.338 97.94H191.338ZM201.603 108.25C204.125 108.25 206.833 107.584 208.948 105.54L201.998 98.3501C202.055 98.2947 202.114 98.2513 202.166 98.2207C202.216 98.1908 202.243 98.1826 202.233 98.1859C202.207 98.1946 202.022 98.25 201.603 98.25V108.25ZM208.948 105.54C211.183 103.38 211.823 100.496 211.823 97.94H201.823C201.823 98.4402 201.759 98.6614 201.748 98.6941C201.744 98.7048 201.756 98.6651 201.799 98.5945C201.844 98.5219 201.91 98.4355 201.998 98.3501L208.948 105.54ZM211.823 97.94V81.02H201.823V97.94H211.823ZM206.823 86.02H215.283V76.02H206.823V86.02ZM210.283 81.02V98.84H220.283V81.02H210.283ZM210.283 98.84C210.283 100.57 209.891 101.679 209.379 102.44L217.677 108.02C219.506 105.301 220.283 102.15 220.283 98.84H210.283ZM209.368 102.457C208.813 103.289 207.998 104.004 206.719 104.56L210.707 113.73C213.568 112.486 215.963 110.591 217.688 108.003L209.368 102.457ZM206.752 104.546C205.451 105.1 203.772 105.45 201.603 105.45V115.45C204.834 115.45 207.895 114.93 210.675 113.744L206.752 104.546ZM219.129 110H214.129V115H219.129V110ZM219.129 81.02V76.02H214.129V81.02H219.129ZM240.009 82.325L237.5 86.6502L237.518 86.6609L237.537 86.6715L240.009 82.325ZM243.429 85.97L238.922 88.1365L238.931 88.1537L238.939 88.1708L243.429 85.97ZM243.069 96.5L238.895 93.7458L238.889 93.7559L238.882 93.7661L243.069 96.5ZM239.199 99.875L237.029 95.37L229.958 98.7748L236.032 103.745L239.199 99.875ZM240.054 100.865L235.795 103.485L235.843 103.563L235.893 103.638L240.054 100.865ZM240.864 102.395L245.444 100.389L245.43 100.358L245.415 100.326L240.864 102.395ZM244.194 110V115H251.841L248.774 107.994L244.194 110ZM235.374 110L230.795 112.009L232.107 115H235.374V110ZM232.314 103.025L236.892 101.016L236.887 101.005L236.883 100.994L232.314 103.025ZM231.414 101.9L228.473 105.944L228.676 106.092L228.894 106.219L231.414 101.9ZM227.589 101.54V96.54H222.589V101.54H227.589ZM227.589 110V115H232.589V110H227.589ZM227.589 95.06H222.589V100.06H227.589V95.06ZM234.879 94.115L238.331 97.7318L238.335 97.7282L234.879 94.115ZM227.589 87.5V82.5H222.589V87.5H227.589ZM224.129 110V81.02H214.129V110H224.129ZM219.129 86.02H234.204V76.02H219.129V86.02ZM234.204 86.02C236.002 86.02 236.992 86.3553 237.5 86.6502L242.517 77.9998C240.026 76.5547 237.145 76.02 234.204 76.02V86.02ZM237.537 86.6715C238.199 87.0477 238.621 87.5095 238.922 88.1365L247.935 83.8035C246.736 81.3105 244.878 79.3423 242.48 77.9785L237.537 86.6715ZM238.939 88.1708C239.293 88.8936 239.554 89.8991 239.554 91.325H249.554C249.554 88.6709 249.064 86.1064 247.918 83.7692L238.939 88.1708ZM239.554 91.325C239.554 92.3827 239.3 93.1327 238.895 93.7458L247.242 99.2542C248.817 96.8673 249.554 94.1673 249.554 91.325H239.554ZM238.882 93.7661C238.433 94.4538 237.849 94.9754 237.029 95.37L241.368 104.38C243.788 103.215 245.784 101.486 247.255 99.2339L238.882 93.7661ZM236.032 103.745C235.9 103.637 235.825 103.535 235.795 103.485L244.312 98.2445C243.802 97.4153 243.157 96.6532 242.365 96.0052L236.032 103.745ZM235.893 103.638C235.892 103.637 235.903 103.653 235.926 103.692C235.948 103.73 235.979 103.784 236.017 103.857C236.095 104.004 236.193 104.203 236.312 104.464L245.415 100.326C245.068 99.561 244.669 98.7747 244.214 98.0915L235.893 103.638ZM236.283 104.401L239.613 112.006L248.774 107.994L245.444 100.389L236.283 104.401ZM244.194 105H235.374V115H244.194V105ZM239.952 107.991L236.892 101.016L227.735 105.034L230.795 112.009L239.952 107.991ZM236.883 100.994C236.389 99.8828 235.507 98.4995 233.933 97.5811L228.894 106.219C228.04 105.721 227.758 105.087 227.744 105.056L236.883 100.994ZM234.354 97.8563C232.819 96.7393 231.122 96.54 229.974 96.54V106.54C229.973 106.54 229.965 106.54 229.95 106.539C229.935 106.538 229.911 106.537 229.88 106.534C229.82 106.527 229.721 106.513 229.593 106.481C229.34 106.417 228.924 106.272 228.473 105.944L234.354 97.8563ZM229.974 96.54H227.589V106.54H229.974V96.54ZM222.589 101.54V110H232.589V101.54H222.589ZM227.589 105H219.129V115H227.589V105ZM227.589 100.06H232.044V90.06H227.589V100.06ZM232.044 100.06C234.102 100.06 236.456 99.5219 238.331 97.7318L231.426 90.4982C231.677 90.2591 231.932 90.1342 232.094 90.0803C232.234 90.0334 232.242 90.06 232.044 90.06V100.06ZM238.335 97.7282C240.251 95.8955 240.914 93.5176 240.914 91.325H230.914C230.914 91.4523 230.895 91.3781 230.967 91.1835C231.047 90.9669 231.199 90.7157 231.422 90.5018L238.335 97.7282ZM240.914 91.325C240.914 89.3522 240.455 86.9426 238.655 85.0294C236.8 83.0593 234.364 82.5 232.314 82.5V92.5C232.485 92.5 232.423 92.5243 232.219 92.4522C231.988 92.3704 231.666 92.1952 231.373 91.8831C230.772 91.2449 230.914 90.7478 230.914 91.325H240.914ZM232.314 82.5H227.589V92.5H232.314V82.5ZM222.589 87.5V95.06H232.589V87.5H222.589ZM247.693 110H242.693V115H247.693V110ZM247.693 81.02V76.02H242.693V81.02H247.693ZM269.653 81.02H274.653V76.02H269.653V81.02ZM269.653 87.5V92.5H274.653V87.5H269.653ZM256.153 87.5V82.5H251.153V87.5H256.153ZM256.153 92.225H251.153V97.225H256.153V92.225ZM267.988 92.225H272.988V87.225H267.988V92.225ZM267.988 98.795V103.795H272.988V98.795H267.988ZM256.153 98.795V93.795H251.153V98.795H256.153ZM256.153 103.52H251.153V108.52H256.153V103.52ZM269.653 103.52H274.653V98.52H269.653V103.52ZM269.653 110V115H274.653V110H269.653ZM252.693 110V81.02H242.693V110H252.693ZM247.693 86.02H269.653V76.02H247.693V86.02ZM264.653 81.02V87.5H274.653V81.02H264.653ZM269.653 82.5H256.153V92.5H269.653V82.5ZM251.153 87.5V92.225H261.153V87.5H251.153ZM256.153 97.225H267.988V87.225H256.153V97.225ZM262.988 92.225V98.795H272.988V92.225H262.988ZM267.988 93.795H256.153V103.795H267.988V93.795ZM251.153 98.795V103.52H261.153V98.795H251.153ZM256.153 108.52H269.653V98.52H256.153V108.52ZM264.653 103.52V110H274.653V103.52H264.653ZM269.653 105H247.693V115H269.653V105Z" fill="#FFFCC1" mask="url(#path-4-outside-2_100_1733)"/>
</g>
<path d="M128.5 65.5V57.5H141.5V65.5H128.5Z" fill="#FFFCC1"/>
<path d="M68 76V74H72V76H68Z" fill="#FFFCC1"/>
<path d="M86 87V77H93V87H86Z" fill="#FFFCC1"/>
<path d="M155 78V73H162V78H155Z" fill="#FFFCC1"/>
<path d="M198 101V77H205V101H198Z" fill="#FFFCC1"/>
<path d="M161 115V91H168V115H161Z" fill="#FFFCC1"/>
</g>
<defs>
<filter id="filter0_i_100_1733" x="63.125" y="10.8999" width="156.923" height="20.3501" filterUnits="userSpaceOnUse" color-interpolation-filters="sRGB">
<feFlood flood-opacity="0" result="BackgroundImageFix"/>
<feBlend mode="normal" in="SourceGraphic" in2="BackgroundImageFix" result="shape"/>
<feColorMatrix in="SourceAlpha" type="matrix" values="0 0 0 0 0 0 0 0 0 0 0 0 0 0 0 0 0 0 127 0" result="hardAlpha"/>
<feOffset dy="4"/>
<feGaussianBlur stdDeviation="2"/>
<feComposite in2="hardAlpha" operator="arithmetic" k2="-1" k3="1"/>
<feColorMatrix type="matrix" values="0 0 0 0 0 0 0 0 0 0 0 0 0 0 0 0 0 0 0.25 0"/>
<feBlend mode="normal" in2="shape" result="effect1_innerShadow_100_1733"/>
</filter>
<filter id="filter1_d_100_1733" x="0.852051" y="41.21" width="277.801" height="82.24" filterUnits="userSpaceOnUse" color-interpolation-filters="sRGB">
<feFlood flood-opacity="0" result="BackgroundImageFix"/>
<feColorMatrix in="SourceAlpha" type="matrix" values="0 0 0 0 0 0 0 0 0 0 0 0 0 0 0 0 0 0 127 0" result="hardAlpha"/>
<feOffset dy="4"/>
<feGaussianBlur stdDeviation="2"/>
<feComposite in2="hardAlpha" operator="out"/>
<feColorMatrix type="matrix" values="0 0 0 0 0.352941 0 0 0 0 0.666667 0 0 0 0 0.517647 0 0 0 0.25 0"/>
<feBlend mode="normal" in2="BackgroundImageFix" result="effect1_dropShadow_100_1733"/>
<feBlend mode="normal" in="SourceGraphic" in2="effect1_dropShadow_100_1733" result="shape"/>
</filter>
<filter id="filter2_d_100_1733" x="42.8521" y="41.21" width="194.569" height="48.24" filterUnits="userSpaceOnUse" color-interpolation-filters="sRGB">
<feFlood flood-opacity="0" result="BackgroundImageFix"/>
<feColorMatrix in="SourceAlpha" type="matrix" values="0 0 0 0 0 0 0 0 0 0 0 0 0 0 0 0 0 0 127 0" result="hardAlpha"/>
<feOffset dy="4"/>
<feGaussianBlur stdDeviation="2"/>
<feComposite in2="hardAlpha" operator="out"/>
<feColorMatrix type="matrix" values="0 0 0 0 0 0 0 0 0 0 0 0 0 0 0 0 0 0 0.25 0"/>
<feBlend mode="normal" in2="BackgroundImageFix" result="effect1_dropShadow_100_1733"/>
<feBlend mode="normal" in="SourceGraphic" in2="effect1_dropShadow_100_1733" result="shape"/>
</filter>
<filter id="filter3_d_100_1733" x="0.852051" y="75.21" width="277.801" height="48.24" filterUnits="userSpaceOnUse" color-interpolation-filters="sRGB">
<feFlood flood-opacity="0" result="BackgroundImageFix"/>
<feColorMatrix in="SourceAlpha" type="matrix" values="0 0 0 0 0 0 0 0 0 0 0 0 0 0 0 0 0 0 127 0" result="hardAlpha"/>
<feOffset dy="4"/>
<feGaussianBlur stdDeviation="2"/>
<feComposite in2="hardAlpha" operator="out"/>
<feColorMatrix type="matrix" values="0 0 0 0 0 0 0 0 0 0 0 0 0 0 0 0 0 0 0.25 0"/>
<feBlend mode="normal" in2="BackgroundImageFix" result="effect1_dropShadow_100_1733"/>
<feBlend mode="normal" in="SourceGraphic" in2="effect1_dropShadow_100_1733" result="shape"/>
</filter>
</defs>
</svg>
