<svg width="582" height="228" viewBox="0 0 582 228" fill="none" xmlns="http://www.w3.org/2000/svg">
<g filter="url(#filter0_d_496_1451)">
<mask id="path-1-outside-1_496_1451" maskUnits="userSpaceOnUse" x="-10" y="112.333" width="598" height="86" fill="black">
<rect fill="white" x="-10" y="112.333" width="598" height="86"/>
<path d="M4.86523 187.333L29.5652 122.933H49.4652L74.1652 187.333H54.5652L49.1652 173.633H29.7652L24.4652 187.333H4.86523ZM32.2652 160.133H46.6652L39.4652 141.233L32.2652 160.133ZM81.1816 187.333V122.933H109.982C116.582 122.933 122.215 124.033 126.882 126.233C131.548 128.367 135.115 131.833 137.582 136.633C140.048 141.367 141.282 147.667 141.282 155.533C141.282 166.6 138.582 174.667 133.182 179.733C127.782 184.8 120.048 187.333 109.982 187.333H81.1816ZM99.9816 172.933H107.582C110.715 172.933 113.348 172.5 115.482 171.633C117.615 170.7 119.248 169 120.382 166.533C121.515 164 122.082 160.333 122.082 155.533C122.082 150.733 121.548 147.033 120.482 144.433C119.482 141.767 117.915 139.933 115.782 138.933C113.648 137.867 110.915 137.333 107.582 137.333H99.9816V172.933ZM166.968 187.333L142.268 122.933H161.868L176.868 165.533L191.868 122.933H211.568L186.868 187.333H166.968ZM217.119 187.333V122.933H265.919V137.333H235.919V147.833H262.219V162.433H235.919V172.933H265.919V187.333H217.119ZM271.904 187.333V122.933H287.904L312.204 157.033V122.933H331.004V187.333H314.904L290.704 153.333V187.333H271.904ZM354.071 187.333V136.933H335.971V122.933H390.971V136.933H372.871V187.333H354.071ZM425.928 188.333C419.928 188.333 414.628 187.367 410.028 185.433C405.494 183.433 401.928 180.533 399.328 176.733C396.728 172.867 395.428 168.133 395.428 162.533V122.933H414.228V160.533C414.228 168.4 418.128 172.333 425.928 172.333C429.661 172.333 432.528 171.367 434.528 169.433C436.528 167.5 437.528 164.533 437.528 160.533V122.933H456.328V162.533C456.328 168.133 455.028 172.867 452.428 176.733C449.894 180.533 446.328 183.433 441.728 185.433C437.194 187.367 431.928 188.333 425.928 188.333ZM464.873 187.333V122.933H498.373C503.64 122.933 507.94 123.9 511.273 125.833C514.673 127.767 517.206 130.467 518.873 133.933C520.54 137.333 521.373 141.3 521.373 145.833C521.373 150.167 520.273 154 518.073 157.333C515.94 160.6 513.073 163.1 509.473 164.833C510.206 165.433 510.84 166.167 511.373 167.033C511.906 167.833 512.506 168.967 513.173 170.433L520.573 187.333H500.973L494.173 171.833C493.64 170.633 492.973 169.8 492.173 169.333C491.44 168.8 490.373 168.533 488.973 168.533H483.673V187.333H464.873ZM483.673 154.133H493.573C496.306 154.133 498.406 153.433 499.873 152.033C501.406 150.567 502.173 148.5 502.173 145.833C502.173 140.167 499.506 137.333 494.173 137.333H483.673V154.133ZM528.35 187.333V122.933H577.15V137.333H547.15V147.833H573.45V162.433H547.15V172.933H577.15V187.333H528.35Z"/>
</mask>
<path d="M4.86523 187.333L29.5652 122.933H49.4652L74.1652 187.333H54.5652L49.1652 173.633H29.7652L24.4652 187.333H4.86523ZM32.2652 160.133H46.6652L39.4652 141.233L32.2652 160.133ZM81.1816 187.333V122.933H109.982C116.582 122.933 122.215 124.033 126.882 126.233C131.548 128.367 135.115 131.833 137.582 136.633C140.048 141.367 141.282 147.667 141.282 155.533C141.282 166.6 138.582 174.667 133.182 179.733C127.782 184.8 120.048 187.333 109.982 187.333H81.1816ZM99.9816 172.933H107.582C110.715 172.933 113.348 172.5 115.482 171.633C117.615 170.7 119.248 169 120.382 166.533C121.515 164 122.082 160.333 122.082 155.533C122.082 150.733 121.548 147.033 120.482 144.433C119.482 141.767 117.915 139.933 115.782 138.933C113.648 137.867 110.915 137.333 107.582 137.333H99.9816V172.933ZM166.968 187.333L142.268 122.933H161.868L176.868 165.533L191.868 122.933H211.568L186.868 187.333H166.968ZM217.119 187.333V122.933H265.919V137.333H235.919V147.833H262.219V162.433H235.919V172.933H265.919V187.333H217.119ZM271.904 187.333V122.933H287.904L312.204 157.033V122.933H331.004V187.333H314.904L290.704 153.333V187.333H271.904ZM354.071 187.333V136.933H335.971V122.933H390.971V136.933H372.871V187.333H354.071ZM425.928 188.333C419.928 188.333 414.628 187.367 410.028 185.433C405.494 183.433 401.928 180.533 399.328 176.733C396.728 172.867 395.428 168.133 395.428 162.533V122.933H414.228V160.533C414.228 168.4 418.128 172.333 425.928 172.333C429.661 172.333 432.528 171.367 434.528 169.433C436.528 167.5 437.528 164.533 437.528 160.533V122.933H456.328V162.533C456.328 168.133 455.028 172.867 452.428 176.733C449.894 180.533 446.328 183.433 441.728 185.433C437.194 187.367 431.928 188.333 425.928 188.333ZM464.873 187.333V122.933H498.373C503.64 122.933 507.94 123.9 511.273 125.833C514.673 127.767 517.206 130.467 518.873 133.933C520.54 137.333 521.373 141.3 521.373 145.833C521.373 150.167 520.273 154 518.073 157.333C515.94 160.6 513.073 163.1 509.473 164.833C510.206 165.433 510.84 166.167 511.373 167.033C511.906 167.833 512.506 168.967 513.173 170.433L520.573 187.333H500.973L494.173 171.833C493.64 170.633 492.973 169.8 492.173 169.333C491.44 168.8 490.373 168.533 488.973 168.533H483.673V187.333H464.873ZM483.673 154.133H493.573C496.306 154.133 498.406 153.433 499.873 152.033C501.406 150.567 502.173 148.5 502.173 145.833C502.173 140.167 499.506 137.333 494.173 137.333H483.673V154.133ZM528.35 187.333V122.933H577.15V137.333H547.15V147.833H573.45V162.433H547.15V172.933H577.15V187.333H528.35Z" fill="#E64D48"/>
<path d="M4.86523 187.333L-4.47158 183.752L-9.68046 197.333H4.86523V187.333ZM29.5652 122.933V112.933H22.6903L20.2284 119.352L29.5652 122.933ZM49.4652 122.933L58.8021 119.352L56.3401 112.933H49.4652V122.933ZM74.1652 187.333V197.333H88.7109L83.5021 183.752L74.1652 187.333ZM54.5652 187.333L45.2619 191.001L47.7581 197.333H54.5652V187.333ZM49.1652 173.633L58.4686 169.966L55.9724 163.633H49.1652V173.633ZM29.7652 173.633V163.633H22.9116L20.4388 170.025L29.7652 173.633ZM24.4652 187.333V197.333H31.3189L33.7917 190.942L24.4652 187.333ZM32.2652 160.133L22.9204 156.574L17.7547 170.133H32.2652V160.133ZM46.6652 160.133V170.133H61.1758L56.0101 156.574L46.6652 160.133ZM39.4652 141.233L48.8101 137.674L39.4652 113.143L30.1204 137.674L39.4652 141.233ZM14.202 190.915L38.9021 126.515L20.2284 119.352L-4.47158 183.752L14.202 190.915ZM29.5652 132.933H49.4652V112.933H29.5652V132.933ZM40.1284 126.515L64.8284 190.915L83.5021 183.752L58.8021 119.352L40.1284 126.515ZM74.1652 177.333H54.5652V197.333H74.1652V177.333ZM63.8686 183.666L58.4686 169.966L39.8619 177.301L45.2619 191.001L63.8686 183.666ZM49.1652 163.633H29.7652V183.633H49.1652V163.633ZM20.4388 170.025L15.1388 183.725L33.7917 190.942L39.0917 177.242L20.4388 170.025ZM24.4652 177.333H4.86523V197.333H24.4652V177.333ZM32.2652 170.133H46.6652V150.133H32.2652V170.133ZM56.0101 156.574L48.8101 137.674L30.1204 144.793L37.3204 163.693L56.0101 156.574ZM30.1204 137.674L22.9204 156.574L41.6101 163.693L48.8101 144.793L30.1204 137.674ZM81.1816 187.333H71.1816V197.333H81.1816V187.333ZM81.1816 122.933V112.933H71.1816V122.933H81.1816ZM126.882 126.233L122.617 135.279L122.671 135.304L122.724 135.328L126.882 126.233ZM137.582 136.633L128.687 141.204L128.7 141.23L128.714 141.255L137.582 136.633ZM133.182 179.733L126.339 172.441L126.339 172.441L133.182 179.733ZM99.9816 172.933H89.9816V182.933H99.9816V172.933ZM115.482 171.633L119.245 180.898L119.368 180.848L119.49 180.795L115.482 171.633ZM120.382 166.533L129.468 170.708L129.489 170.663L129.51 170.617L120.382 166.533ZM120.482 144.433L111.118 147.945L111.172 148.088L111.23 148.229L120.482 144.433ZM115.782 138.933L111.31 147.878L111.423 147.934L111.537 147.988L115.782 138.933ZM99.9816 137.333V127.333H89.9816V137.333H99.9816ZM91.1816 187.333V122.933H71.1816V187.333H91.1816ZM81.1816 132.933H109.982V112.933H81.1816V132.933ZM109.982 132.933C115.505 132.933 119.603 133.857 122.617 135.279L131.146 117.188C124.827 114.21 117.658 112.933 109.982 112.933V132.933ZM122.724 135.328C125.238 136.477 127.19 138.29 128.687 141.204L146.476 132.063C143.04 125.377 137.859 120.256 131.039 117.139L122.724 135.328ZM128.714 141.255C130.168 144.045 131.282 148.571 131.282 155.533H151.282C151.282 146.763 149.929 138.688 146.45 132.012L128.714 141.255ZM131.282 155.533C131.282 165.203 128.908 170.031 126.339 172.441L140.024 187.026C148.255 179.303 151.282 167.997 151.282 155.533H131.282ZM126.339 172.441C123.374 175.223 118.435 177.333 109.982 177.333V197.333C121.662 197.333 132.189 194.378 140.024 187.026L126.339 172.441ZM109.982 177.333H81.1816V197.333H109.982V177.333ZM99.9816 182.933H107.582V162.933H99.9816V182.933ZM107.582 182.933C111.569 182.933 115.57 182.391 119.245 180.898L111.718 162.369C111.127 162.609 109.861 162.933 107.582 162.933V182.933ZM119.49 180.795C124.237 178.718 127.491 175.012 129.468 170.708L111.295 162.358C111.126 162.727 111.03 162.799 111.096 162.73C111.127 162.698 111.181 162.648 111.258 162.594C111.335 162.54 111.411 162.499 111.473 162.472L119.49 180.795ZM129.51 170.617C131.493 166.185 132.082 160.86 132.082 155.533H112.082C112.082 159.806 111.537 161.816 111.253 162.45L129.51 170.617ZM132.082 155.533C132.082 150.223 131.525 145.005 129.733 140.638L111.23 148.229C111.572 149.062 112.082 151.244 112.082 155.533H132.082ZM129.845 140.922C128.132 136.353 125.002 132.211 120.026 129.879L111.537 147.988C111.428 147.937 111.309 147.866 111.196 147.779C111.082 147.692 111.002 147.611 110.954 147.555C110.858 147.443 110.955 147.509 111.118 147.945L129.845 140.922ZM120.254 129.989C116.292 128.009 111.887 127.333 107.582 127.333V147.333C109.943 147.333 111.004 147.725 111.31 147.878L120.254 129.989ZM107.582 127.333H99.9816V147.333H107.582V127.333ZM89.9816 137.333V172.933H109.982V137.333H89.9816ZM166.968 187.333L157.631 190.915L160.093 197.333H166.968V187.333ZM142.268 122.933V112.933H127.722L132.931 126.515L142.268 122.933ZM161.868 122.933L171.3 119.612L168.948 112.933H161.868V122.933ZM176.868 165.533L167.435 168.855L176.868 195.643L186.3 168.855L176.868 165.533ZM191.868 122.933V112.933H184.787L182.435 119.612L191.868 122.933ZM211.568 122.933L220.904 126.515L226.113 112.933H211.568V122.933ZM186.868 187.333V197.333H193.742L196.204 190.915L186.868 187.333ZM176.304 183.752L151.604 119.352L132.931 126.515L157.631 190.915L176.304 183.752ZM142.268 132.933H161.868V112.933H142.268V132.933ZM152.435 126.255L167.435 168.855L186.3 162.212L171.3 119.612L152.435 126.255ZM186.3 168.855L201.3 126.255L182.435 119.612L167.435 162.212L186.3 168.855ZM191.868 132.933H211.568V112.933H191.868V132.933ZM202.231 119.352L177.531 183.752L196.204 190.915L220.904 126.515L202.231 119.352ZM186.868 177.333H166.968V197.333H186.868V177.333ZM217.119 187.333H207.119V197.333H217.119V187.333ZM217.119 122.933V112.933H207.119V122.933H217.119ZM265.919 122.933H275.919V112.933H265.919V122.933ZM265.919 137.333V147.333H275.919V137.333H265.919ZM235.919 137.333V127.333H225.919V137.333H235.919ZM235.919 147.833H225.919V157.833H235.919V147.833ZM262.219 147.833H272.219V137.833H262.219V147.833ZM262.219 162.433V172.433H272.219V162.433H262.219ZM235.919 162.433V152.433H225.919V162.433H235.919ZM235.919 172.933H225.919V182.933H235.919V172.933ZM265.919 172.933H275.919V162.933H265.919V172.933ZM265.919 187.333V197.333H275.919V187.333H265.919ZM227.119 187.333V122.933H207.119V187.333H227.119ZM217.119 132.933H265.919V112.933H217.119V132.933ZM255.919 122.933V137.333H275.919V122.933H255.919ZM265.919 127.333H235.919V147.333H265.919V127.333ZM225.919 137.333V147.833H245.919V137.333H225.919ZM235.919 157.833H262.219V137.833H235.919V157.833ZM252.219 147.833V162.433H272.219V147.833H252.219ZM262.219 152.433H235.919V172.433H262.219V152.433ZM225.919 162.433V172.933H245.919V162.433H225.919ZM235.919 182.933H265.919V162.933H235.919V182.933ZM255.919 172.933V187.333H275.919V172.933H255.919ZM265.919 177.333H217.119V197.333H265.919V177.333ZM271.904 187.333H261.904V197.333H271.904V187.333ZM271.904 122.933V112.933H261.904V122.933H271.904ZM287.904 122.933L296.048 117.13L293.058 112.933H287.904V122.933ZM312.204 157.033L304.061 162.837L322.204 188.298V157.033H312.204ZM312.204 122.933V112.933H302.204V122.933H312.204ZM331.004 122.933H341.004V112.933H331.004V122.933ZM331.004 187.333V197.333H341.004V187.333H331.004ZM314.904 187.333L306.757 193.132L309.748 197.333H314.904V187.333ZM290.704 153.333L298.851 147.535L280.704 122.039V153.333H290.704ZM290.704 187.333V197.333H300.704V187.333H290.704ZM281.904 187.333V122.933H261.904V187.333H281.904ZM271.904 132.933H287.904V112.933H271.904V132.933ZM279.761 128.737L304.061 162.837L320.348 151.23L296.048 117.13L279.761 128.737ZM322.204 157.033V122.933H302.204V157.033H322.204ZM312.204 132.933H331.004V112.933H312.204V132.933ZM321.004 122.933V187.333H341.004V122.933H321.004ZM331.004 177.333H314.904V197.333H331.004V177.333ZM323.051 181.535L298.851 147.535L282.557 159.132L306.757 193.132L323.051 181.535ZM280.704 153.333V187.333H300.704V153.333H280.704ZM290.704 177.333H271.904V197.333H290.704V177.333ZM354.071 187.333H344.071V197.333H354.071V187.333ZM354.071 136.933H364.071V126.933H354.071V136.933ZM335.971 136.933H325.971V146.933H335.971V136.933ZM335.971 122.933V112.933H325.971V122.933H335.971ZM390.971 122.933H400.971V112.933H390.971V122.933ZM390.971 136.933V146.933H400.971V136.933H390.971ZM372.871 136.933V126.933H362.871V136.933H372.871ZM372.871 187.333V197.333H382.871V187.333H372.871ZM364.071 187.333V136.933H344.071V187.333H364.071ZM354.071 126.933H335.971V146.933H354.071V126.933ZM345.971 136.933V122.933H325.971V136.933H345.971ZM335.971 132.933H390.971V112.933H335.971V132.933ZM380.971 122.933V136.933H400.971V122.933H380.971ZM390.971 126.933H372.871V146.933H390.971V126.933ZM362.871 136.933V187.333H382.871V136.933H362.871ZM372.871 177.333H354.071V197.333H372.871V177.333ZM410.028 185.433L405.991 194.583L406.072 194.618L406.153 194.652L410.028 185.433ZM399.328 176.733L391.029 182.313L391.052 182.347L391.075 182.38L399.328 176.733ZM395.428 122.933V112.933H385.428V122.933H395.428ZM414.228 122.933H424.228V112.933H414.228V122.933ZM437.528 122.933V112.933H427.528V122.933H437.528ZM456.328 122.933H466.328V112.933H456.328V122.933ZM452.428 176.733L444.129 171.154L444.118 171.17L444.107 171.186L452.428 176.733ZM441.728 185.433L445.651 194.632L445.683 194.618L445.715 194.604L441.728 185.433ZM425.928 178.333C420.995 178.333 417.054 177.539 413.902 176.215L406.153 194.652C412.202 197.194 418.861 198.333 425.928 198.333V178.333ZM414.064 176.284C411.1 174.977 409.049 173.232 407.581 171.087L391.075 182.38C394.807 187.835 399.889 191.89 405.991 194.583L414.064 176.284ZM407.626 171.154C406.343 169.245 405.428 166.553 405.428 162.533H385.428C385.428 169.714 387.113 176.489 391.029 182.313L407.626 171.154ZM405.428 162.533V122.933H385.428V162.533H405.428ZM395.428 132.933H414.228V112.933H395.428V132.933ZM404.228 122.933V160.533H424.228V122.933H404.228ZM404.228 160.533C404.228 165.987 405.584 171.918 410.052 176.424C414.535 180.946 420.465 182.333 425.928 182.333V162.333C424.789 162.333 424.201 162.186 423.996 162.117C423.839 162.065 424.012 162.098 424.254 162.343C424.494 162.585 424.516 162.745 424.454 162.558C424.376 162.323 424.228 161.704 424.228 160.533H404.228ZM425.928 182.333C431.345 182.333 437.048 180.906 441.478 176.623L427.578 162.244C427.735 162.091 427.835 162.081 427.682 162.133C427.487 162.199 426.952 162.333 425.928 162.333V182.333ZM441.478 176.623C446.147 172.11 447.528 166.045 447.528 160.533H427.528C427.528 161.734 427.374 162.351 427.302 162.564C427.247 162.725 427.291 162.521 427.578 162.244L441.478 176.623ZM447.528 160.533V122.933H427.528V160.533H447.528ZM437.528 132.933H456.328V112.933H437.528V132.933ZM446.328 122.933V162.533H466.328V122.933H446.328ZM446.328 162.533C446.328 166.553 445.413 169.245 444.129 171.154L460.726 182.313C464.643 176.489 466.328 169.714 466.328 162.533H446.328ZM444.107 171.186C442.744 173.231 440.758 174.951 437.74 176.263L445.715 194.604C451.898 191.916 457.045 187.835 460.748 182.28L444.107 171.186ZM437.805 176.235C434.75 177.538 430.865 178.333 425.928 178.333V198.333C432.99 198.333 439.639 197.196 445.651 194.632L437.805 176.235ZM464.873 187.333H454.873V197.333H464.873V187.333ZM464.873 122.933V112.933H454.873V122.933H464.873ZM511.273 125.833L506.256 134.484L506.293 134.505L506.33 134.526L511.273 125.833ZM518.873 133.933L509.861 138.266L509.877 138.301L509.894 138.335L518.873 133.933ZM518.073 157.333L509.727 151.825L509.714 151.845L509.7 151.866L518.073 157.333ZM509.473 164.833L505.135 155.823L490.992 162.633L503.141 172.573L509.473 164.833ZM511.373 167.033L502.856 172.274L502.952 172.429L503.053 172.58L511.373 167.033ZM513.173 170.433L522.333 166.422L522.305 166.359L522.277 166.295L513.173 170.433ZM520.573 187.333V197.333H535.868L529.733 183.322L520.573 187.333ZM500.973 187.333L491.816 191.351L494.44 197.333H500.973V187.333ZM494.173 171.833L503.331 167.816L503.321 167.794L503.311 167.772L494.173 171.833ZM492.173 169.333L486.291 177.421L486.699 177.717L487.134 177.971L492.173 169.333ZM483.673 168.533V158.533H473.673V168.533H483.673ZM483.673 187.333V197.333H493.673V187.333H483.673ZM483.673 154.133H473.673V164.133H483.673V154.133ZM499.873 152.033L506.778 159.267L506.785 159.26L499.873 152.033ZM483.673 137.333V127.333H473.673V137.333H483.673ZM474.873 187.333V122.933H454.873V187.333H474.873ZM464.873 132.933H498.373V112.933H464.873V132.933ZM498.373 132.933C502.497 132.933 504.906 133.701 506.256 134.484L516.29 117.183C510.974 114.1 504.782 112.933 498.373 112.933V132.933ZM506.33 134.526C507.993 135.472 509.091 136.666 509.861 138.266L527.886 129.601C525.322 124.268 521.353 120.061 516.216 117.141L506.33 134.526ZM509.894 138.335C510.769 140.121 511.373 142.528 511.373 145.833H531.373C531.373 140.072 530.31 134.546 527.852 129.532L509.894 138.335ZM511.373 145.833C511.373 148.382 510.756 150.266 509.727 151.825L526.419 162.842C529.79 157.735 531.373 151.951 531.373 145.833H511.373ZM509.7 151.866C508.589 153.568 507.134 154.861 505.135 155.823L513.811 173.844C519.012 171.339 523.291 167.633 526.446 162.801L509.7 151.866ZM503.141 172.573C503.052 172.5 502.981 172.429 502.93 172.37C502.905 172.341 502.887 172.317 502.874 172.3C502.862 172.283 502.856 172.274 502.856 172.274L519.89 161.793C518.816 160.048 517.463 158.45 515.805 157.094L503.141 172.573ZM503.053 172.58C503.155 172.734 503.498 173.315 504.069 174.572L522.277 166.295C521.515 164.619 520.658 162.933 519.694 161.487L503.053 172.58ZM504.013 174.445L511.413 191.345L529.733 183.322L522.333 166.422L504.013 174.445ZM520.573 177.333H500.973V197.333H520.573V177.333ZM510.131 183.316L503.331 167.816L485.016 175.851L491.816 191.351L510.131 183.316ZM503.311 167.772C502.27 165.429 500.441 162.579 497.212 160.696L487.134 177.971C486.323 177.498 485.784 176.955 485.464 176.555C485.157 176.171 485.039 175.905 485.035 175.895L503.311 167.772ZM498.055 161.246C494.91 158.959 491.41 158.533 488.973 158.533V178.533C489.066 178.533 488.839 178.545 488.398 178.435C487.944 178.321 487.158 178.051 486.291 177.421L498.055 161.246ZM488.973 158.533H483.673V178.533H488.973V158.533ZM473.673 168.533V187.333H493.673V168.533H473.673ZM483.673 177.333H464.873V197.333H483.673V177.333ZM483.673 164.133H493.573V144.133H483.673V164.133ZM493.573 164.133C497.963 164.133 502.881 162.987 506.778 159.267L492.968 144.8C493.168 144.609 493.379 144.454 493.581 144.335C493.78 144.218 493.941 144.153 494.036 144.122C494.212 144.063 494.107 144.133 493.573 144.133V164.133ZM506.785 159.26C510.771 155.448 512.173 150.485 512.173 145.833H492.173C492.173 146.221 492.116 146.191 492.222 145.905C492.276 145.76 492.364 145.572 492.498 145.366C492.634 145.158 492.792 144.969 492.961 144.807L506.785 159.26ZM512.173 145.833C512.173 141.605 511.19 136.573 507.455 132.605C503.613 128.523 498.541 127.333 494.173 127.333V147.333C494.649 147.333 494.642 147.4 494.335 147.291C493.973 147.163 493.412 146.866 492.891 146.312C491.823 145.177 492.173 144.396 492.173 145.833H512.173ZM494.173 127.333H483.673V147.333H494.173V127.333ZM473.673 137.333V154.133H493.673V137.333H473.673ZM528.35 187.333H518.35V197.333H528.35V187.333ZM528.35 122.933V112.933H518.35V122.933H528.35ZM577.15 122.933H587.15V112.933H577.15V122.933ZM577.15 137.333V147.333H587.15V137.333H577.15ZM547.15 137.333V127.333H537.15V137.333H547.15ZM547.15 147.833H537.15V157.833H547.15V147.833ZM573.45 147.833H583.45V137.833H573.45V147.833ZM573.45 162.433V172.433H583.45V162.433H573.45ZM547.15 162.433V152.433H537.15V162.433H547.15ZM547.15 172.933H537.15V182.933H547.15V172.933ZM577.15 172.933H587.15V162.933H577.15V172.933ZM577.15 187.333V197.333H587.15V187.333H577.15ZM538.35 187.333V122.933H518.35V187.333H538.35ZM528.35 132.933H577.15V112.933H528.35V132.933ZM567.15 122.933V137.333H587.15V122.933H567.15ZM577.15 127.333H547.15V147.333H577.15V127.333ZM537.15 137.333V147.833H557.15V137.333H537.15ZM547.15 157.833H573.45V137.833H547.15V157.833ZM563.45 147.833V162.433H583.45V147.833H563.45ZM573.45 152.433H547.15V172.433H573.45V152.433ZM537.15 162.433V172.933H557.15V162.433H537.15ZM547.15 182.933H577.15V162.933H547.15V182.933ZM567.15 172.933V187.333H587.15V172.933H567.15ZM577.15 177.333H528.35V197.333H577.15V177.333Z" fill="#FFFCC1" mask="url(#path-1-outside-1_496_1451)"/>
</g>
<mask id="path-3-outside-2_496_1451" maskUnits="userSpaceOnUse" x="81.0864" y="34" width="413" height="87" fill="black">
<rect fill="white" x="81.0864" y="34" width="413" height="87"/>
<path d="M95.9321 110L120.632 45.6H140.532L165.232 110H145.632L140.232 96.3H120.832L115.532 110H95.9321ZM123.332 82.8H137.732L130.532 63.9L123.332 82.8ZM172.249 110V45.6H205.749C211.015 45.6 215.315 46.5667 218.649 48.5C222.049 50.4333 224.582 53.1333 226.249 56.6C227.915 60 228.749 63.9667 228.749 68.5C228.749 72.8333 227.649 76.6667 225.449 80C223.315 83.2667 220.449 85.7667 216.849 87.5C217.582 88.1 218.215 88.8333 218.749 89.7C219.282 90.5 219.882 91.6333 220.549 93.1L227.949 110H208.349L201.549 94.5C201.015 93.3 200.349 92.4667 199.549 92C198.815 91.4667 197.749 91.2 196.349 91.2H191.049V110H172.249ZM191.049 76.8H200.949C203.682 76.8 205.782 76.1 207.249 74.7C208.782 73.2333 209.549 71.1667 209.549 68.5C209.549 62.8333 206.882 60 201.549 60H191.049V76.8ZM268.16 111C256.494 111 247.594 108.133 241.46 102.4C235.327 96.6667 232.26 88.5667 232.26 78.1C232.26 67.3 235.26 59.0333 241.26 53.3C247.26 47.5 256.194 44.6 268.06 44.6C272.06 44.6 275.627 44.9 278.76 45.5C281.894 46.1 284.894 46.9333 287.76 48V64.4C282.027 61.8667 275.894 60.6 269.36 60.6C263.294 60.6 258.794 62 255.86 64.8C252.927 67.5333 251.46 71.9667 251.46 78.1C251.46 84.1 252.994 88.4333 256.06 91.1C259.194 93.7 263.694 95 269.56 95C272.76 95 275.86 94.7 278.86 94.1C281.927 93.5 284.96 92.5667 287.96 91.3V107.8C285.094 108.8 282.06 109.567 278.86 110.1C275.727 110.7 272.16 111 268.16 111ZM291.049 110L315.749 45.6H335.649L360.349 110H340.749L335.349 96.3H315.949L310.649 110H291.049ZM318.449 82.8H332.849L325.649 63.9L318.449 82.8ZM367.366 110V45.6H396.166C402.766 45.6 408.399 46.7 413.066 48.9C417.732 51.0333 421.299 54.5 423.766 59.3C426.232 64.0333 427.466 70.3333 427.466 78.2C427.466 89.2667 424.766 97.3333 419.366 102.4C413.966 107.467 406.232 110 396.166 110H367.366ZM386.166 95.6H393.766C396.899 95.6 399.532 95.1667 401.666 94.3C403.799 93.3667 405.432 91.6667 406.566 89.2C407.699 86.6667 408.266 83 408.266 78.2C408.266 73.4 407.732 69.7 406.666 67.1C405.666 64.4333 404.099 62.6 401.966 61.6C399.832 60.5333 397.099 60 393.766 60H386.166V95.6ZM434.456 110V45.6H483.256V60H453.256V70.5H479.556V85.1H453.256V95.6H483.256V110H434.456Z"/>
</mask>
<path d="M95.9321 110L120.632 45.6H140.532L165.232 110H145.632L140.232 96.3H120.832L115.532 110H95.9321ZM123.332 82.8H137.732L130.532 63.9L123.332 82.8ZM172.249 110V45.6H205.749C211.015 45.6 215.315 46.5667 218.649 48.5C222.049 50.4333 224.582 53.1333 226.249 56.6C227.915 60 228.749 63.9667 228.749 68.5C228.749 72.8333 227.649 76.6667 225.449 80C223.315 83.2667 220.449 85.7667 216.849 87.5C217.582 88.1 218.215 88.8333 218.749 89.7C219.282 90.5 219.882 91.6333 220.549 93.1L227.949 110H208.349L201.549 94.5C201.015 93.3 200.349 92.4667 199.549 92C198.815 91.4667 197.749 91.2 196.349 91.2H191.049V110H172.249ZM191.049 76.8H200.949C203.682 76.8 205.782 76.1 207.249 74.7C208.782 73.2333 209.549 71.1667 209.549 68.5C209.549 62.8333 206.882 60 201.549 60H191.049V76.8ZM268.16 111C256.494 111 247.594 108.133 241.46 102.4C235.327 96.6667 232.26 88.5667 232.26 78.1C232.26 67.3 235.26 59.0333 241.26 53.3C247.26 47.5 256.194 44.6 268.06 44.6C272.06 44.6 275.627 44.9 278.76 45.5C281.894 46.1 284.894 46.9333 287.76 48V64.4C282.027 61.8667 275.894 60.6 269.36 60.6C263.294 60.6 258.794 62 255.86 64.8C252.927 67.5333 251.46 71.9667 251.46 78.1C251.46 84.1 252.994 88.4333 256.06 91.1C259.194 93.7 263.694 95 269.56 95C272.76 95 275.86 94.7 278.86 94.1C281.927 93.5 284.96 92.5667 287.96 91.3V107.8C285.094 108.8 282.06 109.567 278.86 110.1C275.727 110.7 272.16 111 268.16 111ZM291.049 110L315.749 45.6H335.649L360.349 110H340.749L335.349 96.3H315.949L310.649 110H291.049ZM318.449 82.8H332.849L325.649 63.9L318.449 82.8ZM367.366 110V45.6H396.166C402.766 45.6 408.399 46.7 413.066 48.9C417.732 51.0333 421.299 54.5 423.766 59.3C426.232 64.0333 427.466 70.3333 427.466 78.2C427.466 89.2667 424.766 97.3333 419.366 102.4C413.966 107.467 406.232 110 396.166 110H367.366ZM386.166 95.6H393.766C396.899 95.6 399.532 95.1667 401.666 94.3C403.799 93.3667 405.432 91.6667 406.566 89.2C407.699 86.6667 408.266 83 408.266 78.2C408.266 73.4 407.732 69.7 406.666 67.1C405.666 64.4333 404.099 62.6 401.966 61.6C399.832 60.5333 397.099 60 393.766 60H386.166V95.6ZM434.456 110V45.6H483.256V60H453.256V70.5H479.556V85.1H453.256V95.6H483.256V110H434.456Z" fill="#E64D48"/>
<path d="M95.9321 110L86.5953 106.419L81.3864 120H95.9321V110ZM120.632 45.6V35.6H113.757L111.295 42.0189L120.632 45.6ZM140.532 45.6L149.869 42.0189L147.407 35.6H140.532V45.6ZM165.232 110V120H179.778L174.569 106.419L165.232 110ZM145.632 110L136.329 113.667L138.825 120H145.632V110ZM140.232 96.3L149.536 92.633L147.039 86.3H140.232V96.3ZM120.832 96.3V86.3H113.979L111.506 92.692L120.832 96.3ZM115.532 110V120H122.386L124.859 113.608L115.532 110ZM123.332 82.8L113.987 79.24L108.822 92.8H123.332V82.8ZM137.732 82.8V92.8H152.243L147.077 79.24L137.732 82.8ZM130.532 63.9L139.877 60.34L130.532 35.8097L121.187 60.34L130.532 63.9ZM105.269 113.581L129.969 49.181L111.295 42.0189L86.5953 106.419L105.269 113.581ZM120.632 55.6H140.532V35.6H120.632V55.6ZM131.195 49.181L155.895 113.581L174.569 106.419L149.869 42.0189L131.195 49.181ZM165.232 100H145.632V120H165.232V100ZM154.936 106.333L149.536 92.633L130.929 99.967L136.329 113.667L154.936 106.333ZM140.232 86.3H120.832V106.3H140.232V86.3ZM111.506 92.692L106.206 106.392L124.859 113.608L130.159 99.908L111.506 92.692ZM115.532 100H95.9321V120H115.532V100ZM123.332 92.8H137.732V72.8H123.332V92.8ZM147.077 79.24L139.877 60.34L121.187 67.46L128.387 86.36L147.077 79.24ZM121.187 60.34L113.987 79.24L132.677 86.36L139.877 67.46L121.187 60.34ZM172.249 110H162.249V120H172.249V110ZM172.249 45.6V35.6H162.249V45.6H172.249ZM218.649 48.5L213.631 57.1503L213.668 57.1718L213.706 57.1929L218.649 48.5ZM226.249 56.6L217.236 60.9329L217.253 60.9673L217.269 61.0016L226.249 56.6ZM225.449 80L217.102 74.4916L217.089 74.5118L217.076 74.5321L225.449 80ZM216.849 87.5L212.51 78.49L198.367 85.2996L210.516 95.2396L216.849 87.5ZM218.749 89.7L210.232 94.941L210.327 95.0958L210.428 95.247L218.749 89.7ZM220.549 93.1L229.709 89.089L229.681 89.0253L229.652 88.962L220.549 93.1ZM227.949 110V120H243.244L237.109 105.989L227.949 110ZM208.349 110L199.191 114.017L201.816 120H208.349V110ZM201.549 94.5L210.706 90.4825L210.696 90.4605L210.687 90.4386L201.549 94.5ZM199.549 92L193.667 100.087L194.074 100.384L194.51 100.638L199.549 92ZM191.049 91.2V81.2H181.049V91.2H191.049ZM191.049 110V120H201.049V110H191.049ZM191.049 76.8H181.049V86.8H191.049V76.8ZM207.249 74.7L214.153 81.9336L214.161 81.9264L207.249 74.7ZM191.049 60V50H181.049V60H191.049ZM182.249 110V45.6H162.249V110H182.249ZM172.249 55.6H205.749V35.6H172.249V55.6ZM205.749 55.6C209.873 55.6 212.281 56.3672 213.631 57.1503L223.666 39.8497C218.349 36.7661 212.158 35.6 205.749 35.6V55.6ZM213.706 57.1929C215.369 58.1388 216.467 59.3324 217.236 60.9329L235.261 52.267C232.697 46.9343 228.728 42.7279 223.592 39.8071L213.706 57.1929ZM217.269 61.0016C218.145 62.7872 218.749 65.1949 218.749 68.5H238.749C238.749 62.7385 237.686 57.2128 235.228 52.1984L217.269 61.0016ZM218.749 68.5C218.749 71.0487 218.132 72.9321 217.102 74.4916L233.795 85.5084C237.165 80.4012 238.749 74.618 238.749 68.5H218.749ZM217.076 74.5321C215.964 76.2342 214.509 77.5275 212.51 78.49L221.187 96.51C226.388 94.0058 230.666 90.2992 233.821 85.4679L217.076 74.5321ZM210.516 95.2396C210.427 95.1666 210.357 95.0956 210.305 95.0362C210.28 95.0074 210.262 94.9837 210.25 94.9667C210.237 94.9498 210.232 94.9407 210.232 94.941L227.265 84.459C226.191 82.714 224.838 81.1163 223.181 79.7604L210.516 95.2396ZM210.428 95.247C210.53 95.4006 210.874 95.9813 211.445 97.238L229.652 88.962C228.89 87.2853 228.033 85.5994 227.069 84.153L210.428 95.247ZM211.388 97.111L218.788 114.011L237.109 105.989L229.709 89.089L211.388 97.111ZM227.949 100H208.349V120H227.949V100ZM217.506 105.983L210.706 90.4825L192.391 98.5175L199.191 114.017L217.506 105.983ZM210.687 90.4386C209.645 88.0955 207.816 85.2457 204.587 83.3622L194.51 100.638C193.699 100.165 193.159 99.6215 192.84 99.222C192.532 98.8373 192.415 98.5716 192.41 98.5614L210.687 90.4386ZM205.43 83.9126C202.285 81.6253 198.786 81.2 196.349 81.2V101.2C196.442 101.2 196.214 101.212 195.773 101.101C195.319 100.988 194.533 100.717 193.667 100.087L205.43 83.9126ZM196.349 81.2H191.049V101.2H196.349V81.2ZM181.049 91.2V110H201.049V91.2H181.049ZM191.049 100H172.249V120H191.049V100ZM191.049 86.8H200.949V66.8H191.049V86.8ZM200.949 86.8C205.339 86.8 210.256 85.6537 214.153 81.9336L200.344 67.4664C200.544 67.2756 200.754 67.1203 200.956 67.0015C201.155 66.8841 201.316 66.8198 201.411 66.7882C201.588 66.7293 201.483 66.8 200.949 66.8V86.8ZM214.161 81.9264C218.146 78.1142 219.549 73.1518 219.549 68.5H199.549C199.549 68.8879 199.492 68.8578 199.598 68.5719C199.652 68.4263 199.74 68.2383 199.874 68.0321C200.009 67.8246 200.167 67.6352 200.336 67.4736L214.161 81.9264ZM219.549 68.5C219.549 64.2711 218.565 59.2393 214.831 55.2714C210.989 51.1895 205.917 50 201.549 50V70C202.024 70 202.017 70.0663 201.71 69.9575C201.348 69.8294 200.787 69.5321 200.267 68.9786C199.199 67.844 199.549 67.0622 199.549 68.5H219.549ZM201.549 50H191.049V70H201.549V50ZM181.049 60V76.8H201.049V60H181.049ZM241.46 102.4L248.289 95.0947L248.289 95.0947L241.46 102.4ZM241.26 53.3L248.169 60.5299L248.19 60.51L248.21 60.4899L241.26 53.3ZM278.76 45.5L276.88 55.3215L278.76 45.5ZM287.76 48H297.76V41.0511L291.248 38.6278L287.76 48ZM287.76 64.4L283.719 73.5469L297.76 79.7513V64.4H287.76ZM255.86 64.8L262.678 72.1161L262.722 72.0751L262.765 72.0336L255.86 64.8ZM256.06 91.1L249.498 98.6461L249.586 98.7219L249.675 98.7956L256.06 91.1ZM278.86 94.1L276.94 84.2861L276.92 84.2901L276.899 84.2942L278.86 94.1ZM287.96 91.3H297.96V76.223L284.071 82.0875L287.96 91.3ZM287.96 107.8L291.254 117.242L297.96 114.903V107.8H287.96ZM278.86 110.1L277.216 100.236L277.098 100.256L276.98 100.278L278.86 110.1ZM268.16 101C258.034 101 251.953 98.5193 248.289 95.0947L234.631 109.705C243.235 117.747 254.953 121 268.16 121V101ZM248.289 95.0947C244.656 91.699 242.26 86.5275 242.26 78.1H222.26C222.26 90.6059 225.997 101.634 234.631 109.705L248.289 95.0947ZM242.26 78.1C242.26 69.1672 244.691 63.8531 248.169 60.5299L234.352 46.0701C225.829 54.2136 222.26 65.4328 222.26 78.1H242.26ZM248.21 60.4899C251.682 57.1337 257.688 54.6 268.06 54.6V34.6C254.699 34.6 242.838 37.8663 234.31 46.1101L248.21 60.4899ZM268.06 54.6C271.58 54.6 274.499 54.8656 276.88 55.3215L280.641 35.6784C276.755 34.9343 272.54 34.6 268.06 34.6V54.6ZM276.88 55.3215C279.489 55.8213 281.95 56.508 284.273 57.3722L291.248 38.6278C287.837 37.3587 284.298 36.3787 280.641 35.6784L276.88 55.3215ZM277.76 48V64.4H297.76V48H277.76ZM291.802 55.2531C284.741 52.1334 277.225 50.6 269.36 50.6V70.6C274.562 70.6 279.312 71.5999 283.719 73.5469L291.802 55.2531ZM269.36 50.6C261.975 50.6 254.492 52.2817 248.955 57.5664L262.765 72.0336C263.095 71.7183 264.612 70.6 269.36 70.6V50.6ZM249.043 57.4839C243.215 62.9141 241.46 70.649 241.46 78.1H261.46C261.46 73.2844 262.638 72.1526 262.678 72.1161L249.043 57.4839ZM241.46 78.1C241.46 85.5922 243.375 93.3212 249.498 98.6461L262.622 83.5539C262.612 83.5454 261.46 82.6078 261.46 78.1H241.46ZM249.675 98.7956C255.248 103.421 262.367 105 269.56 105V85C265.021 85 263.139 83.9795 262.446 83.4044L249.675 98.7956ZM269.56 105C273.389 105 277.147 104.641 280.821 103.906L276.899 84.2942C274.574 84.7593 272.132 85 269.56 85V105ZM280.78 103.914C284.55 103.176 288.243 102.036 291.85 100.512L284.071 82.0875C281.678 83.0977 279.304 83.8237 276.94 84.2861L280.78 103.914ZM277.96 91.3V107.8H297.96V91.3H277.96ZM284.667 98.358C282.372 99.1584 279.893 99.7899 277.216 100.236L280.504 119.964C284.227 119.343 287.815 118.442 291.254 117.242L284.667 98.358ZM276.98 100.278C274.599 100.734 271.68 101 268.16 101V121C272.64 121 276.855 120.666 280.741 119.922L276.98 100.278ZM291.049 110L281.713 106.419L276.504 120H291.049V110ZM315.749 45.6V35.6H308.874L306.413 42.0189L315.749 45.6ZM335.649 45.6L344.986 42.0189L342.524 35.6H335.649V45.6ZM360.349 110V120H374.895L369.686 106.419L360.349 110ZM340.749 110L331.446 113.667L333.942 120H340.749V110ZM335.349 96.3L344.653 92.633L342.156 86.3H335.349V96.3ZM315.949 96.3V86.3H309.096L306.623 92.692L315.949 96.3ZM310.649 110V120H317.503L319.976 113.608L310.649 110ZM318.449 82.8L309.104 79.24L303.939 92.8H318.449V82.8ZM332.849 82.8V92.8H347.36L342.194 79.24L332.849 82.8ZM325.649 63.9L334.994 60.34L325.649 35.8097L316.304 60.34L325.649 63.9ZM300.386 113.581L325.086 49.181L306.413 42.0189L281.713 106.419L300.386 113.581ZM315.749 55.6H335.649V35.6H315.749V55.6ZM326.313 49.181L351.013 113.581L369.686 106.419L344.986 42.0189L326.313 49.181ZM360.349 100H340.749V120H360.349V100ZM350.053 106.333L344.653 92.633L326.046 99.967L331.446 113.667L350.053 106.333ZM335.349 86.3H315.949V106.3H335.349V86.3ZM306.623 92.692L301.323 106.392L319.976 113.608L325.276 99.908L306.623 92.692ZM310.649 100H291.049V120H310.649V100ZM318.449 92.8H332.849V72.8H318.449V92.8ZM342.194 79.24L334.994 60.34L316.304 67.46L323.504 86.36L342.194 79.24ZM316.304 60.34L309.104 79.24L327.794 86.36L334.994 67.46L316.304 60.34ZM367.366 110H357.366V120H367.366V110ZM367.366 45.6V35.6H357.366V45.6H367.366ZM413.066 48.9L408.802 57.9453L408.855 57.9703L408.908 57.9947L413.066 48.9ZM423.766 59.3L414.871 63.8707L414.884 63.8961L414.898 63.9214L423.766 59.3ZM419.366 102.4L412.523 95.1074L412.523 95.1074L419.366 102.4ZM386.166 95.6H376.166V105.6H386.166V95.6ZM401.666 94.3L405.429 103.565L405.552 103.515L405.674 103.462L401.666 94.3ZM406.566 89.2L415.652 93.375L415.673 93.3294L415.694 93.2837L406.566 89.2ZM406.666 67.1L397.302 70.6112L397.356 70.7543L397.414 70.8956L406.666 67.1ZM401.966 61.6L397.494 70.5443L397.607 70.6009L397.721 70.6546L401.966 61.6ZM386.166 60V50H376.166V60H386.166ZM377.366 110V45.6H357.366V110H377.366ZM367.366 55.6H396.166V35.6H367.366V55.6ZM396.166 55.6C401.689 55.6 405.787 56.5239 408.802 57.9453L417.33 39.8547C411.011 36.876 403.842 35.6 396.166 35.6V55.6ZM408.908 57.9947C411.422 59.1439 413.374 60.9566 414.871 63.8707L432.66 54.7293C429.224 48.0434 424.043 42.9227 417.223 39.8053L408.908 57.9947ZM414.898 63.9214C416.352 66.7119 417.466 71.2375 417.466 78.2H437.466C437.466 69.4291 436.113 61.3548 432.634 54.6786L414.898 63.9214ZM417.466 78.2C417.466 87.8696 415.092 92.6972 412.523 95.1074L426.208 109.693C434.439 101.969 437.466 90.6638 437.466 78.2H417.466ZM412.523 95.1074C409.558 97.8893 404.619 100 396.166 100V120C407.846 120 418.373 117.044 426.208 109.693L412.523 95.1074ZM396.166 100H367.366V120H396.166V100ZM386.166 105.6H393.766V85.6H386.166V105.6ZM393.766 105.6C397.753 105.6 401.754 105.058 405.429 103.565L397.902 85.0353C397.311 85.2754 396.045 85.6 393.766 85.6V105.6ZM405.674 103.462C410.421 101.385 413.675 97.6783 415.652 93.375L397.479 85.025C397.31 85.3934 397.214 85.465 397.28 85.3967C397.311 85.3642 397.366 85.3141 397.442 85.2605C397.519 85.2067 397.595 85.1659 397.658 85.1384L405.674 103.462ZM415.694 93.2837C417.677 88.8513 418.266 83.527 418.266 78.2H398.266C398.266 82.473 397.721 84.482 397.438 85.1163L415.694 93.2837ZM418.266 78.2C418.266 72.8891 417.709 67.6715 415.917 63.3044L397.414 70.8956C397.756 71.7285 398.266 73.9109 398.266 78.2H418.266ZM416.029 63.5888C414.316 59.02 411.186 54.8779 406.21 52.5454L397.721 70.6546C397.612 70.6033 397.494 70.533 397.38 70.4458C397.266 70.359 397.186 70.2776 397.138 70.2215C397.042 70.1091 397.139 70.1752 397.302 70.6112L416.029 63.5888ZM406.438 52.6557C402.476 50.675 398.071 50 393.766 50V70C396.127 70 397.188 70.3917 397.494 70.5443L406.438 52.6557ZM393.766 50H386.166V70H393.766V50ZM376.166 60V95.6H396.166V60H376.166ZM434.456 110H424.456V120H434.456V110ZM434.456 45.6V35.6H424.456V45.6H434.456ZM483.256 45.6H493.256V35.6H483.256V45.6ZM483.256 60V70H493.256V60H483.256ZM453.256 60V50H443.256V60H453.256ZM453.256 70.5H443.256V80.5H453.256V70.5ZM479.556 70.5H489.556V60.5H479.556V70.5ZM479.556 85.1V95.1H489.556V85.1H479.556ZM453.256 85.1V75.1H443.256V85.1H453.256ZM453.256 95.6H443.256V105.6H453.256V95.6ZM483.256 95.6H493.256V85.6H483.256V95.6ZM483.256 110V120H493.256V110H483.256ZM444.456 110V45.6H424.456V110H444.456ZM434.456 55.6H483.256V35.6H434.456V55.6ZM473.256 45.6V60H493.256V45.6H473.256ZM483.256 50H453.256V70H483.256V50ZM443.256 60V70.5H463.256V60H443.256ZM453.256 80.5H479.556V60.5H453.256V80.5ZM469.556 70.5V85.1H489.556V70.5H469.556ZM479.556 75.1H453.256V95.1H479.556V75.1ZM443.256 85.1V95.6H463.256V85.1H443.256ZM453.256 105.6H483.256V85.6H453.256V105.6ZM473.256 95.6V110H493.256V95.6H473.256ZM483.256 100H434.456V120H483.256V100Z" fill="#FFFCC1" mask="url(#path-3-outside-2_496_1451)"/>
<rect x="124" y="100" width="13" height="18" fill="#FFFCC1"/>
<rect x="105" y="144" width="13" height="22" fill="#FFFCC1"/>
<rect x="259" y="66" width="35" height="22" fill="#FFFCC1"/>
<rect x="317" y="101" width="16" height="14" fill="#FFFCC1"/>
<rect x="294" y="115" width="16" height="14" fill="#FFFCC1"/>
<rect x="387" y="68" width="16" height="20" fill="#FFFCC1"/>
<rect x="416" y="105" width="16" height="60" fill="#FFFCC1"/>
<rect x="170" y="118" width="13" height="19" fill="#FFFCC1"/>
<defs>
<filter id="filter0_d_496_1451" x="0.865234" y="122.934" width="580.284" height="73.3999" filterUnits="userSpaceOnUse" color-interpolation-filters="sRGB">
<feFlood flood-opacity="0" result="BackgroundImageFix"/>
<feColorMatrix in="SourceAlpha" type="matrix" values="0 0 0 0 0 0 0 0 0 0 0 0 0 0 0 0 0 0 127 0" result="hardAlpha"/>
<feOffset dy="4"/>
<feGaussianBlur stdDeviation="2"/>
<feComposite in2="hardAlpha" operator="out"/>
<feColorMatrix type="matrix" values="0 0 0 0 0 0 0 0 0 0 0 0 0 0 0 0 0 0 0.25 0"/>
<feBlend mode="normal" in2="BackgroundImageFix" result="effect1_dropShadow_496_1451"/>
<feBlend mode="normal" in="SourceGraphic" in2="effect1_dropShadow_496_1451" result="shape"/>
</filter>
</defs>
</svg>
